<svg xmlns="http://www.w3.org/2000/svg" data-bbox="21.418 141.457 332.164 92.086" data-type="ugc" viewBox="19.18 139.21 336.63 96.57">
    <g>
        <defs>
            <clipPath id="c09a2ff9-68eb-423f-be06-17d653cac4d0">
                <path d="M21.418 141.457h332.164v92.086H21.418Zm0 0"/>
            </clipPath>
            <clipPath id="e71fb0bb-4236-49cf-a707-0ed159ee9d4d">
                <path d="M21.43 141.457h332.132v92.074H21.43Zm0 0"/>
            </clipPath>
        </defs>
        <g clip-path="url(#c09a2ff9-68eb-423f-be06-17d653cac4d0)">
            <path d="M21.418 141.457h332.164v92.086H21.418Zm0 0" fill="#e8e8e8"/>
        </g>
        <g clip-path="url(#e71fb0bb-4236-49cf-a707-0ed159ee9d4d)">
            <path stroke-width="4.5" stroke="#4b4b4b" d="M21.43 141.457h332.133v92.074H21.43Zm0 0" fill="none"/>
        </g>
        <path d="M48.574 186.019h-4.687l-10.75-20.047h7.968l4.891 10.828 4.797-10.828h4.781l4.797 10.828 4.89-10.828h7.97L62.48 186.02h-4.688l-4.61-10.36Zm0 0" fill="#ff9062"/>
        <path d="M94.636 176.957H80.105c0 1.406.453 2.449 1.36 3.125.913.68 1.905 1.015 2.968 1.015 1.125 0 2.008-.148 2.656-.453.656-.3 1.399-.895 2.234-1.781l5 2.5c-2.085 3.5-5.546 5.25-10.39 5.25-3.024 0-5.617-1.035-7.781-3.11-2.157-2.07-3.235-4.566-3.235-7.484 0-2.914 1.078-5.414 3.235-7.5 2.164-2.094 4.757-3.14 7.78-3.14 3.177 0 5.759.921 7.75 2.765 2 1.836 3 4.46 3 7.875 0 .469-.015.781-.046.938Zm-14.344-3.829h7.625c-.156-1.039-.57-1.843-1.234-2.406-.668-.562-1.524-.844-2.563-.844-1.148 0-2.058.305-2.734.907-.68.593-1.043 1.375-1.094 2.343Zm0 0" fill="#ff9062"/>
        <path d="M117.765 176.957h-14.531c0 1.406.453 2.449 1.36 3.125.913.68 1.905 1.015 2.968 1.015 1.125 0 2.008-.148 2.656-.453.656-.3 1.399-.895 2.234-1.781l5 2.5c-2.085 3.5-5.546 5.25-10.39 5.25-3.024 0-5.617-1.035-7.781-3.11-2.157-2.07-3.235-4.566-3.235-7.484 0-2.914 1.078-5.414 3.235-7.5 2.164-2.094 4.757-3.14 7.78-3.14 3.177 0 5.759.921 7.75 2.765 2 1.836 3 4.46 3 7.875 0 .469-.015.781-.046.938Zm-14.344-3.829h7.625c-.156-1.039-.57-1.843-1.234-2.406-.668-.562-1.524-.844-2.563-.844-1.148 0-2.058.305-2.734.907-.68.593-1.043 1.375-1.094 2.343Zm0 0" fill="#ff9062"/>
        <path d="M129.332 165.378c1.145 0 2.274.133 3.391.391 1.125.262 1.957.523 2.5.781l.828.406-2.265 4.532c-1.563-.832-3.047-1.25-4.454-1.25-.78 0-1.34.086-1.671.25-.325.168-.485.484-.485.953 0 .105.008.21.031.312a.87.87 0 0 0 .157.297c.082.094.156.172.218.235.07.062.188.136.344.218.156.075.274.133.36.172.093.043.242.106.453.188.207.074.363.133.468.172.102.03.282.09.532.172.25.074.437.125.562.156.813.23 1.516.492 2.11.781a10.49 10.49 0 0 1 1.89 1.172 5.022 5.022 0 0 1 1.547 1.875c.363.75.547 1.61.547 2.578 0 4.563-3.164 6.844-9.484 6.844a12.47 12.47 0 0 1-4.094-.672c-1.281-.445-2.211-.89-2.781-1.328l-.86-.703 2.813-4.735c.207.188.476.406.812.656.344.243.957.579 1.844 1.016.883.43 1.648.64 2.297.64 1.437 0 2.156-.484 2.156-1.452 0-.438-.183-.782-.547-1.032-.367-.25-.984-.53-1.86-.843-.874-.313-1.558-.598-2.046-.86-1.25-.644-2.242-1.379-2.969-2.203-.73-.82-1.094-1.91-1.094-3.266 0-2.03.786-3.613 2.36-4.75 1.57-1.132 3.703-1.703 6.39-1.703Zm0 0" fill="#ff9062"/>
        <path d="M139.407 186.019v-33.61h6.922v15.673h.078c1.789-1.801 3.703-2.704 5.734-2.704.988 0 1.973.133 2.953.391.977.262 1.914.668 2.813 1.219.906.554 1.633 1.328 2.187 2.328.563 1 .844 2.168.844 3.5v13.203h-6.922v-11.328a4.1 4.1 0 0 0-1-2.734c-.656-.782-1.523-1.172-2.594-1.172-1.043 0-1.984.406-2.828 1.218-.844.805-1.265 1.7-1.265 2.688v11.328Zm0 0" fill="#ff9062"/>
        <path d="M166.693 183.644c-2.218-1.988-3.328-4.531-3.328-7.625 0-3.102 1.156-5.648 3.469-7.64 2.32-2 5.188-3 8.594-3 3.363 0 6.195 1.007 8.5 3.015 2.312 2.012 3.469 4.555 3.469 7.625 0 3.074-1.133 5.61-3.391 7.61-2.25 1.992-5.11 2.984-8.578 2.984-3.594 0-6.508-.989-8.735-2.969Zm5.36-11.031c-.899.886-1.344 2.023-1.344 3.406 0 1.375.426 2.5 1.281 3.375.864.875 2 1.313 3.406 1.313 1.352 0 2.461-.442 3.329-1.329.875-.882 1.312-2.004 1.312-3.359 0-1.383-.45-2.52-1.344-3.406-.898-.883-1.996-1.328-3.297-1.328-1.335 0-2.449.445-3.343 1.328Zm0 0" fill="#ff9062"/>
        <path d="M194.652 177.66c1.25 0 2.312.437 3.187 1.312.875.867 1.313 1.922 1.313 3.172 0 1.23-.438 2.281-1.313 3.156s-1.937 1.313-3.187 1.313c-1.219 0-2.266-.438-3.14-1.313-.876-.875-1.313-1.926-1.313-3.156 0-1.25.437-2.305 1.312-3.172.875-.875 1.922-1.312 3.14-1.312Zm0 0" fill="#4b4b4b"/>
        <path d="M203.405 186.019v-33.61h6.922v33.61Zm0 0" fill="#4b4b4b"/>
        <path d="M215.954 183.55c-1.875-2.05-2.813-4.562-2.813-7.531 0-2.969.938-5.484 2.813-7.547 1.875-2.062 4.254-3.094 7.14-3.094 2.657 0 4.844.84 6.563 2.516v-1.922h6.922v20.047h-6.844v-2.266h-.078c-1.719 1.907-3.906 2.86-6.563 2.86-2.886 0-5.265-1.02-7.14-3.063Zm5.875-10.937c-.899.886-1.344 2.023-1.344 3.406 0 1.375.426 2.5 1.281 3.375.864.875 2 1.313 3.407 1.313 1.351 0 2.46-.442 3.328-1.329.875-.882 1.312-2.004 1.312-3.359 0-1.383-.45-2.52-1.344-3.406-.898-.883-1.996-1.328-3.296-1.328-1.336 0-2.45.445-3.344 1.328Zm0 0" fill="#4b4b4b"/>
        <path d="M261.474 168.457c1.875 2.042 2.813 4.546 2.813 7.515 0 2.969-.938 5.484-2.813 7.547-1.875 2.063-4.261 3.094-7.156 3.094-2.656 0-4.844-.836-6.562-2.516v12.078h-6.922v-30.203h6.844v2.266h.078c1.718-1.906 3.906-2.86 6.562-2.86 2.895 0 5.281 1.028 7.156 3.079Zm-5.89 10.921c.894-.882 1.344-2.015 1.344-3.39 0-1.383-.434-2.516-1.297-3.39-.856-.876-1.985-1.313-3.391-1.313-1.355 0-2.469.445-3.344 1.328-.867.886-1.297 2.008-1.297 3.36 0 1.386.446 2.523 1.344 3.405.895.887 1.992 1.329 3.297 1.329 1.332 0 2.445-.442 3.344-1.329Zm0 0" fill="#4b4b4b"/>
        <path d="M268.464 183.55c-1.875-2.05-2.813-4.562-2.813-7.531 0-2.969.938-5.484 2.813-7.547 1.875-2.062 4.254-3.094 7.14-3.094 2.657 0 4.844.84 6.563 2.516v-1.922h6.922v20.047h-6.844v-2.266h-.078c-1.719 1.907-3.906 2.86-6.563 2.86-2.886 0-5.265-1.02-7.14-3.063Zm5.875-10.937c-.899.886-1.344 2.023-1.344 3.406 0 1.375.426 2.5 1.281 3.375.864.875 2 1.313 3.406 1.313 1.352 0 2.461-.442 3.329-1.329.875-.882 1.312-2.004 1.312-3.359 0-1.383-.45-2.52-1.344-3.406-.898-.883-1.996-1.328-3.296-1.328-1.336 0-2.45.445-3.344 1.328Zm0 0" fill="#4b4b4b"/>
        <path d="M293.344 186.019v-20.047h6.922v2.89h.078c.05-.1.133-.234.25-.39.113-.156.363-.426.75-.812.394-.395.812-.75 1.25-1.063.445-.312 1.02-.594 1.719-.844a6.425 6.425 0 0 1 2.156-.375 8.16 8.16 0 0 1 2.234.313c.727.21 1.258.418 1.594.625l.562.328-2.906 5.86c-.855-.727-2.055-1.094-3.594-1.094-.836 0-1.554.183-2.156.547-.594.367-1.015.808-1.265 1.328a9.163 9.163 0 0 0-.516 1.328c-.106.367-.156.652-.156.86v10.546Zm0 0" fill="#4b4b4b"/>
        <path d="M313.747 183.55c-1.875-2.05-2.813-4.562-2.813-7.531 0-2.969.938-5.484 2.813-7.547 1.875-2.062 4.254-3.094 7.14-3.094 2.657 0 4.844.84 6.563 2.516v-1.922h6.922v20.047h-6.844v-2.266h-.078c-1.719 1.907-3.906 2.86-6.563 2.86-2.886 0-5.265-1.02-7.14-3.063Zm5.875-10.937c-.899.886-1.344 2.023-1.344 3.406 0 1.375.426 2.5 1.281 3.375.864.875 2 1.313 3.406 1.313 1.352 0 2.461-.442 3.329-1.329.875-.882 1.312-2.004 1.312-3.359 0-1.383-.45-2.52-1.344-3.406-.898-.883-1.996-1.328-3.296-1.328-1.336 0-2.45.445-3.344 1.328Zm0 0" fill="#4b4b4b"/>
        <path d="M52.938 210.311a.53.53 0 0 1 .36.125c.093.086.14.2.14.344a.43.43 0 0 1-.14.344.51.51 0 0 1-.36.125H51.11v5.781a.467.467 0 0 1-.156.36.507.507 0 0 1-.375.14.532.532 0 0 1-.375-.14.483.483 0 0 1-.14-.36v-5.781h-1.829a.504.504 0 0 1-.36-.125.43.43 0 0 1-.14-.344c0-.145.047-.258.14-.344a.522.522 0 0 1 .36-.125Zm0 0" fill="#4b4b4b"/>
        <path d="M65.952 214.624a.39.39 0 0 1-.156.312.467.467 0 0 1-.329.125h-3.64c.05.5.242.906.578 1.219.332.305.738.453 1.219.453.332 0 .601-.047.812-.14.207-.102.39-.227.547-.375a.573.573 0 0 1 .297-.094c.113 0 .207.043.281.125a.365.365 0 0 1 .125.281c0 .148-.07.277-.203.39-.2.2-.465.372-.797.516a2.614 2.614 0 0 1-1 .203c-.562 0-1.058-.113-1.484-.343a2.472 2.472 0 0 1-.969-.985 2.973 2.973 0 0 1-.344-1.437c0-.57.114-1.078.344-1.516.238-.437.55-.77.938-1a2.41 2.41 0 0 1 1.265-.36c.438 0 .848.118 1.235.345.382.23.69.542.921.937.239.398.36.844.36 1.344Zm-2.516-1.719c-.387 0-.719.11-1 .328-.281.219-.469.555-.562 1h3.047v-.078c-.032-.363-.2-.66-.5-.89a1.523 1.523 0 0 0-.985-.36Zm0 0" fill="#4b4b4b"/>
        <path d="M76.152 211.999c.54 0 .992.09 1.36.265.363.168.546.387.546.657a.46.46 0 0 1-.125.312.344.344 0 0 1-.28.14.552.552 0 0 1-.22-.03 6.129 6.129 0 0 0-.203-.141 1.24 1.24 0 0 0-.203-.14 1.315 1.315 0 0 0-.344-.11 2.124 2.124 0 0 0-.406-.047c-.367 0-.687.086-.969.25a1.78 1.78 0 0 0-.64.688 2.114 2.114 0 0 0-.219.968c0 .367.07.696.219.985.156.293.363.523.625.687.27.168.578.25.922.25.363 0 .656-.055.875-.172a5.25 5.25 0 0 1 .187-.14.992.992 0 0 1 .188-.11.351.351 0 0 1 .187-.047c.133 0 .238.043.313.125.082.086.125.2.125.344 0 .137-.094.277-.282.422-.18.137-.418.25-.718.344-.305.094-.633.14-.985.14-.523 0-.984-.117-1.39-.359a2.518 2.518 0 0 1-.922-1.016 3.3 3.3 0 0 1-.313-1.453c0-.52.11-.992.328-1.422.227-.437.547-.773.953-1.015.407-.25.868-.375 1.391-.375Zm0 0" fill="#4b4b4b"/>
        <path d="M88.512 212.03c1.207 0 1.812.75 1.812 2.25v2.75a.483.483 0 0 1-.484.5.483.483 0 0 1-.36-.14.504.504 0 0 1-.124-.36v-2.75c0-.895-.383-1.344-1.141-1.344-.406 0-.746.133-1.016.39a1.3 1.3 0 0 0-.39.954v2.75a.483.483 0 0 1-.5.5.483.483 0 0 1-.36-.14.504.504 0 0 1-.125-.36v-6.64c0-.133.047-.25.141-.344a.466.466 0 0 1 .344-.141.477.477 0 0 1 .5.484V213c.164-.258.398-.485.703-.672a1.856 1.856 0 0 1 1-.297Zm0 0" fill="#4b4b4b"/>
        <path d="M101.258 211.999c1.239 0 1.86.746 1.86 2.234v2.797a.483.483 0 0 1-.5.5.483.483 0 0 1-.484-.5v-2.797c0-.394-.094-.71-.282-.953-.18-.25-.48-.375-.906-.375-.274 0-.524.063-.75.188a1.31 1.31 0 0 0-.516.484 1.21 1.21 0 0 0-.187.656v2.797a.483.483 0 0 1-.5.5.483.483 0 0 1-.36-.14.504.504 0 0 1-.125-.36v-4.406c0-.133.047-.25.141-.344a.473.473 0 0 1 .703 0 .47.47 0 0 1 .14.344v.36c.177-.27.423-.5.735-.688a1.95 1.95 0 0 1 1.031-.297Zm0 0" fill="#4b4b4b"/>
        <path d="M112.217 217.03a.483.483 0 0 1-.484.5.483.483 0 0 1-.36-.14.504.504 0 0 1-.124-.36v-4.453a.51.51 0 0 1 .125-.36.483.483 0 0 1 .359-.14c.133 0 .25.047.344.14.093.094.14.215.14.36Zm-.5-5.64c-.199 0-.34-.036-.422-.11-.086-.07-.125-.188-.125-.344v-.156c0-.164.047-.281.141-.344.094-.07.234-.11.422-.11.187 0 .32.04.406.11.094.074.14.188.14.344v.156c0 .168-.046.29-.14.36-.086.062-.226.093-.422.093Zm0 0" fill="#4b4b4b"/>
        <path d="M122.698 211.999c.54 0 .992.09 1.36.265.363.168.546.387.546.657a.46.46 0 0 1-.125.312.344.344 0 0 1-.28.14.552.552 0 0 1-.22-.03 6.129 6.129 0 0 0-.203-.141 1.24 1.24 0 0 0-.203-.14 1.315 1.315 0 0 0-.344-.11 2.124 2.124 0 0 0-.406-.047c-.367 0-.687.086-.969.25a1.78 1.78 0 0 0-.64.688 2.114 2.114 0 0 0-.219.968c0 .367.07.696.219.985.156.293.363.523.625.687.27.168.578.25.922.25.363 0 .656-.055.875-.172a5.25 5.25 0 0 1 .187-.14.992.992 0 0 1 .188-.11.351.351 0 0 1 .187-.047c.133 0 .238.043.313.125.082.086.125.2.125.344 0 .137-.094.277-.282.422-.18.137-.418.25-.718.344-.305.094-.633.14-.985.14-.523 0-.984-.117-1.39-.359a2.518 2.518 0 0 1-.922-1.016 3.3 3.3 0 0 1-.313-1.453c0-.52.11-.992.328-1.422.227-.437.547-.773.954-1.015.406-.25.867-.375 1.39-.375Zm0 0" fill="#4b4b4b"/>
        <path d="M136.743 212.061c.145 0 .266.047.36.14a.46.46 0 0 1 .14.36v4.469a.483.483 0 0 1-.5.5.483.483 0 0 1-.484-.5v-.266a2.29 2.29 0 0 1-.734.625c-.305.164-.637.25-1 .25a2.32 2.32 0 0 1-1.266-.359 2.567 2.567 0 0 1-.906-1.016c-.211-.425-.313-.91-.313-1.453 0-.531.102-1.008.313-1.437.218-.438.515-.774.89-1.016a2.33 2.33 0 0 1 1.25-.36c.364 0 .703.079 1.016.235.32.149.57.34.75.578v-.25c0-.144.047-.265.14-.36a.466.466 0 0 1 .344-.14Zm-2.093 4.672c.32 0 .609-.082.859-.25.25-.164.441-.394.578-.687.145-.29.219-.618.219-.985 0-.351-.074-.672-.219-.953a1.664 1.664 0 0 0-.578-.687 1.464 1.464 0 0 0-.86-.266 1.53 1.53 0 0 0-.859.25 1.76 1.76 0 0 0-.594.688 2.047 2.047 0 0 0-.218.968c0 .367.07.696.218.985.145.293.344.523.594.687.25.168.535.25.86.25Zm0 0" fill="#4b4b4b"/>
        <path d="M146.477 217.03a.467.467 0 0 1-.156.36.472.472 0 0 1-.344.14.483.483 0 0 1-.484-.5v-6.64a.47.47 0 0 1 .14-.344.515.515 0 0 1 .36-.141c.132 0 .25.047.343.14.094.094.14.212.14.344Zm0 0" fill="#4b4b4b"/>
        <path d="M169.579 210.733c.164.094.25.23.25.406a.54.54 0 0 1-.125.344.4.4 0 0 1-.344.172.548.548 0 0 1-.281-.078 2.726 2.726 0 0 0-1.375-.36c-.512 0-.965.118-1.36.344a2.47 2.47 0 0 0-.937.953c-.219.407-.328.875-.328 1.407 0 .574.113 1.07.344 1.484.226.406.539.719.937.938.395.218.844.328 1.344.328.508 0 .969-.125 1.375-.375a.647.647 0 0 1 .281-.063.45.45 0 0 1 .36.172.531.531 0 0 1 .125.328.393.393 0 0 1-.078.234.454.454 0 0 1-.172.172 4.384 4.384 0 0 1-.907.36c-.336.094-.664.14-.984.14a3.926 3.926 0 0 1-1.844-.437 3.402 3.402 0 0 1-1.344-1.297c-.335-.563-.5-1.223-.5-1.984 0-.696.16-1.32.485-1.875a3.54 3.54 0 0 1 1.312-1.328 3.752 3.752 0 0 1 1.891-.485c.664 0 1.29.168 1.875.5Zm0 0" fill="#4b4b4b"/>
        <path d="M182.715 214.827c0 .543-.121 1.027-.36 1.453-.242.418-.57.75-.984 1-.418.242-.875.36-1.375.36s-.96-.118-1.375-.36a2.715 2.715 0 0 1-.984-1c-.243-.426-.36-.91-.36-1.453 0-.531.117-1.016.36-1.453a2.56 2.56 0 0 1 .984-1.016c.414-.238.875-.36 1.375-.36s.957.122 1.375.36c.414.242.742.578.984 1.016.239.437.36.922.36 1.453Zm-.969 0c0-.375-.078-.707-.234-1a1.687 1.687 0 0 0-.641-.672 1.62 1.62 0 0 0-.875-.25 1.705 1.705 0 0 0-1.516.922 2.088 2.088 0 0 0-.234 1c0 .367.078.695.234.984.157.281.364.508.625.672.27.168.567.25.891.25.32 0 .613-.082.875-.25.27-.164.484-.39.64-.672.157-.289.235-.617.235-.984Zm0 0" fill="#4b4b4b"/>
        <path d="M193.318 211.999c1.239 0 1.86.746 1.86 2.234v2.797a.483.483 0 0 1-.5.5.483.483 0 0 1-.484-.5v-2.797c0-.394-.094-.71-.282-.953-.18-.25-.48-.375-.906-.375-.274 0-.524.063-.75.188a1.31 1.31 0 0 0-.516.484 1.21 1.21 0 0 0-.187.656v2.797a.483.483 0 0 1-.5.5.483.483 0 0 1-.36-.14.504.504 0 0 1-.125-.36v-4.406c0-.133.047-.25.141-.344a.473.473 0 0 1 .703 0 .47.47 0 0 1 .14.344v.36c.177-.27.423-.5.735-.688a1.95 1.95 0 0 1 1.031-.297Zm0 0" fill="#4b4b4b"/>
        <path d="M204.824 213.093v3.062c0 .344.149.516.453.516a.76.76 0 0 0 .203-.032.915.915 0 0 1 .188-.03c.094 0 .172.038.234.108a.422.422 0 0 1 .094.282c0 .148-.086.273-.25.375a1.035 1.035 0 0 1-.563.156c-.218 0-.43-.02-.624-.063-.188-.05-.356-.175-.5-.375-.149-.195-.22-.492-.22-.89v-3.11h-.593a.43.43 0 0 1-.328-.125.485.485 0 0 1-.125-.343.42.42 0 0 1 .125-.313.445.445 0 0 1 .328-.125h.594v-.86c0-.144.047-.265.14-.358a.483.483 0 0 1 .36-.141c.133 0 .25.047.344.14.093.094.14.215.14.36v.86h.844c.133 0 .242.046.328.14a.433.433 0 0 1 .125.312.445.445 0 0 1-.125.328.442.442 0 0 1-.328.125Zm0 0" fill="#4b4b4b"/>
        <path d="M218.725 214.624a.39.39 0 0 1-.156.312.467.467 0 0 1-.329.125h-3.64c.05.5.242.906.578 1.219.332.305.738.453 1.219.453.332 0 .601-.047.812-.14.207-.102.39-.227.547-.375a.573.573 0 0 1 .297-.094c.113 0 .207.043.281.125a.365.365 0 0 1 .125.281c0 .148-.07.277-.203.39-.2.2-.465.372-.797.516a2.614 2.614 0 0 1-1 .203c-.562 0-1.058-.113-1.484-.343a2.472 2.472 0 0 1-.969-.985 2.973 2.973 0 0 1-.344-1.437c0-.57.114-1.078.344-1.516.238-.437.55-.77.938-1a2.41 2.41 0 0 1 1.265-.36c.438 0 .848.118 1.234.345.383.23.692.542.922.937.239.398.36.844.36 1.344Zm-2.516-1.719c-.387 0-.719.11-1 .328-.281.219-.469.555-.562 1h3.047v-.078c-.032-.363-.2-.66-.5-.89a1.523 1.523 0 0 0-.985-.36Zm0 0" fill="#4b4b4b"/>
        <path d="M229.331 211.999c1.239 0 1.86.746 1.86 2.234v2.797a.483.483 0 0 1-.5.5.483.483 0 0 1-.484-.5v-2.797c0-.394-.094-.71-.282-.953-.18-.25-.48-.375-.906-.375-.274 0-.524.063-.75.188a1.31 1.31 0 0 0-.516.484 1.21 1.21 0 0 0-.187.656v2.797a.483.483 0 0 1-.5.5.483.483 0 0 1-.36-.14.504.504 0 0 1-.125-.36v-4.406c0-.133.047-.25.141-.344a.473.473 0 0 1 .703 0 .47.47 0 0 1 .14.344v.36c.177-.27.423-.5.735-.688a1.95 1.95 0 0 1 1.031-.297Zm0 0" fill="#4b4b4b"/>
        <path d="M240.838 213.093v3.062c0 .344.149.516.453.516a.76.76 0 0 0 .203-.032.915.915 0 0 1 .188-.03c.094 0 .172.038.234.108a.422.422 0 0 1 .094.282c0 .148-.086.273-.25.375a1.035 1.035 0 0 1-.563.156c-.218 0-.43-.02-.625-.063-.187-.05-.355-.175-.5-.375-.148-.195-.218-.492-.218-.89v-3.11h-.594a.43.43 0 0 1-.328-.125.485.485 0 0 1-.125-.343.42.42 0 0 1 .125-.313.445.445 0 0 1 .328-.125h.594v-.86c0-.144.047-.265.14-.358a.483.483 0 0 1 .36-.141c.133 0 .25.047.343.14a.49.49 0 0 1 .141.36v.86h.844c.133 0 .242.046.328.14a.433.433 0 0 1 .125.312.445.445 0 0 1-.125.328.442.442 0 0 1-.328.125Zm0 0" fill="#4b4b4b"/>
        <path d="M261.89 217.64c-.5 0-.945-.07-1.328-.204a3.398 3.398 0 0 1-1.11-.703c-.148-.125-.218-.266-.218-.422a.45.45 0 0 1 .14-.328.484.484 0 0 1 .344-.156c.113 0 .21.039.297.11.281.261.566.452.86.577.288.118.616.172.984.172.437 0 .8-.097 1.093-.297.301-.195.454-.445.454-.75 0-.363-.149-.64-.438-.828-.293-.195-.742-.363-1.344-.5-.71-.144-1.258-.379-1.64-.703-.375-.332-.563-.789-.563-1.375 0-.406.102-.758.313-1.062.218-.313.515-.551.89-.72.375-.163.801-.25 1.281-.25.426 0 .829.075 1.204.22.382.136.691.32.922.547.156.136.234.28.234.437a.45.45 0 0 1-.14.328.45.45 0 0 1-.329.14.34.34 0 0 1-.234-.077 2.377 2.377 0 0 0-.75-.453 2.445 2.445 0 0 0-.906-.188c-.461 0-.825.094-1.094.281-.274.188-.406.438-.406.75a.89.89 0 0 0 .406.781c.27.18.672.329 1.203.454.539.117.976.25 1.312.406.344.156.61.375.797.656.188.281.281.652.281 1.11 0 .398-.117.75-.343 1.062a2.203 2.203 0 0 1-.906.734c-.387.164-.81.25-1.266.25Zm0 0" fill="#4b4b4b"/>
        <path d="M273.761 213.093v3.062c0 .344.149.516.453.516a.76.76 0 0 0 .203-.032.915.915 0 0 1 .188-.03c.094 0 .172.038.234.108a.422.422 0 0 1 .094.282c0 .148-.086.273-.25.375a1.035 1.035 0 0 1-.563.156c-.218 0-.43-.02-.625-.063-.187-.05-.355-.175-.5-.375-.148-.195-.218-.492-.218-.89v-3.11h-.594a.43.43 0 0 1-.328-.125.485.485 0 0 1-.125-.343.42.42 0 0 1 .125-.313.445.445 0 0 1 .328-.125h.594v-.86c0-.144.047-.265.14-.358a.483.483 0 0 1 .36-.141c.133 0 .25.047.344.14.093.094.14.215.14.36v.86h.844c.133 0 .242.046.328.14a.433.433 0 0 1 .125.312.445.445 0 0 1-.125.328.442.442 0 0 1-.328.125Zm0 0" fill="#4b4b4b"/>
        <path d="M286.942 212.124c.145 0 .266.054.36.156.093.094.14.21.14.344v2.734c0 .719-.2 1.277-.594 1.672-.398.398-.953.594-1.672.594-.718 0-1.277-.196-1.671-.594-.387-.395-.579-.953-.579-1.672v-2.734c0-.133.047-.25.141-.344a.473.473 0 0 1 .703 0 .47.47 0 0 1 .14.344v2.734c0 .906.423 1.36 1.266 1.36.414 0 .735-.114.954-.344.218-.227.328-.567.328-1.016v-2.734a.47.47 0 0 1 .14-.344.452.452 0 0 1 .344-.156Zm0 0" fill="#4b4b4b"/>
        <path d="M299.996 209.905c.145 0 .266.047.36.14.094.087.14.2.14.344v6.641a.483.483 0 0 1-.5.5.483.483 0 0 1-.484-.5v-.281a2.05 2.05 0 0 1-.719.64c-.312.164-.652.25-1.015.25a2.32 2.32 0 0 1-1.266-.359 2.621 2.621 0 0 1-.89-1.016 3.134 3.134 0 0 1-.329-1.453c0-.531.102-1.008.313-1.437.219-.438.515-.774.89-1.016a2.33 2.33 0 0 1 1.25-.36c.364 0 .704.079 1.016.235.313.149.563.34.75.578v-2.422c0-.144.047-.257.14-.343a.466.466 0 0 1 .344-.141Zm-2.093 6.828c.32 0 .609-.082.859-.25.25-.164.441-.394.578-.687.145-.29.219-.618.219-.985 0-.351-.074-.676-.219-.969a1.664 1.664 0 0 0-.578-.687 1.54 1.54 0 0 0-.86-.25 1.53 1.53 0 0 0-.859.25 1.76 1.76 0 0 0-.594.688 2.114 2.114 0 0 0-.218.968c0 .367.07.696.219.985.144.293.343.523.593.687.25.168.535.25.86.25Zm0 0" fill="#4b4b4b"/>
        <path d="M309.588 217.03a.483.483 0 0 1-.484.5.483.483 0 0 1-.36-.14.504.504 0 0 1-.125-.36v-4.453a.51.51 0 0 1 .125-.36.483.483 0 0 1 .36-.14c.133 0 .25.047.344.14.093.094.14.215.14.36Zm-.5-5.64c-.199 0-.34-.036-.422-.11-.086-.07-.125-.188-.125-.344v-.156c0-.164.047-.281.141-.344.094-.07.234-.11.422-.11.187 0 .32.04.406.11.094.074.14.188.14.344v.156c0 .168-.046.29-.14.36-.086.062-.226.093-.422.093Zm0 0" fill="#4b4b4b"/>
        <path d="M322.834 214.827c0 .543-.121 1.027-.36 1.453-.242.418-.57.75-.984 1-.418.242-.875.36-1.375.36s-.96-.118-1.375-.36a2.715 2.715 0 0 1-.984-1c-.243-.426-.36-.91-.36-1.453 0-.531.117-1.016.36-1.453a2.56 2.56 0 0 1 .984-1.016c.414-.238.875-.36 1.375-.36s.957.122 1.375.36c.414.242.742.578.984 1.016.239.437.36.922.36 1.453Zm-.969 0c0-.375-.078-.707-.234-1a1.687 1.687 0 0 0-.641-.672 1.62 1.62 0 0 0-.875-.25 1.705 1.705 0 0 0-1.516.922 2.088 2.088 0 0 0-.234 1c0 .367.078.695.234.984.157.281.364.508.625.672.27.168.567.25.891.25.32 0 .613-.082.875-.25.27-.164.484-.39.64-.672.157-.289.235-.617.235-.984Zm0 0" fill="#4b4b4b"/>
    </g>
</svg>