<?xml version="1.0" encoding="utf-8"?>
<svg viewBox="0 0 1600 1200" xmlns="http://www.w3.org/2000/svg">
  <path d="M 155.4 996.2 C 204.6 998.4 253.8 999.5 303 999.4 C 304.9 999.4 304.9 996.4 303 996.4 C 253.8 996.5 204.6 995.4 155.4 993.2 C 153.5 993.1 153.5 996.1 155.4 996.2 Z M 306 921.8 C 313.7 950.7 320.9 979.8 327.5 1009 C 327.9 1010.9 330.8 1010.1 330.4 1008.2 C 323.7 979 316.6 949.9 308.9 921 C 308.4 919.2 305.5 920 306 921.8 Z M 440 924 C 437.2 951.5 434.4 979.1 431.7 1006.6 C 431.5 1008.5 434.5 1008.5 434.7 1006.6 C 437.5 979.1 440.3 951.5 443 924 C 443.1 922.1 440.1 922.1 440 924 Z" id="Shape" fill="#E8E8E8" fill-rule="nonzero" stroke="none" stroke-width="1" transform="matrix(1, 0, 0, 1, 0, -7.105427357601002e-15)"/>
  <path d="M 328.3 1011.7 C 345.8 1014.8 363.5 1016.2 381.3 1015.7 C 398.3 1015.2 416.9 1013.9 433.1 1008.5 C 434.9 1007.9 434.1 1005 432.3 1005.6 C 416.2 1010.9 398.1 1012.2 381.3 1012.7 C 363.8 1013.2 346.3 1011.8 329.1 1008.8 C 327.2 1008.4 326.4 1011.3 328.3 1011.7 Z M 307.2 922.8 C 327.9 928.6 350.4 928.7 371.8 928.8 C 394.8 929 417.8 927.7 440.6 925.1 C 442.5 924.9 442.5 921.9 440.6 922.1 C 418.4 924.7 396.1 925.9 373.8 925.8 C 352.1 925.7 329.1 925.7 308 919.9 C 306.1 919.4 305.3 922.3 307.2 922.8 Z" id="Shape" fill="#E8E8E8" fill-rule="nonzero" stroke="none" stroke-width="1" transform="matrix(1, 0, 0, 1, 0, -7.105427357601002e-15)"/>
  <path d="M 298.6 912.5 C 298.8 914.4 299 916.4 299.2 918.3 C 299.3 919.5 299.3 921 299.8 922.1 C 301 924.7 305 923.8 307.3 923.8 C 309.2 923.8 309.2 920.8 307.3 920.8 L 303.9 920.8 C 302.4 920.8 302.4 920.5 302.3 919 C 302.1 916.8 301.9 914.7 301.7 912.5 C 301.4 910.6 298.4 910.5 298.6 912.5 Z" id="Path" fill="#E8E8E8" fill-rule="nonzero" stroke="none" stroke-width="1" transform="matrix(1, 0, 0, 1, 0, -7.105427357601002e-15)"/>
  <path d="M 300.6 914.1 C 325.6 917 350.7 918.4 375.9 918.6 C 388.3 918.7 400.7 918.5 413.2 918.1 C 419.4 917.9 425.6 917.6 431.8 917.3 C 434.7 917.2 438.7 916.2 441.6 916.8 C 445.1 917.4 444.9 920.4 445.3 923.5 C 445.6 922.9 446 922.3 446.3 921.7 L 442.4 921.7 C 440.5 921.3 439.7 924.2 441.6 924.6 C 443.6 925 445.1 925 447 924.6 C 447.9 924.4 448.2 923.5 448 922.8 C 447.5 919.3 447.9 914.9 443.7 914 C 441.2 913.4 438.1 914.1 435.5 914.2 C 432.2 914.4 429 914.5 425.7 914.7 C 411.7 915.3 397.6 915.7 383.5 915.7 C 355.7 915.7 328 914.4 300.4 911.1 C 298.7 910.9 298.7 913.9 300.6 914.1 Z M 322.3 986.8 C 330.3 997.3 339.7 1006.4 350.3 1014.2 C 351.9 1015.3 353.4 1012.7 351.8 1011.6 C 341.6 1004.1 332.5 995.3 324.8 985.2 C 323.7 983.7 321.1 985.2 322.3 986.8 Z M 315.6 956.3 C 331.2 978.8 350.4 998.5 372.6 1014.6 C 374.2 1015.7 375.7 1013.1 374.1 1012 C 352.4 996.2 333.5 976.8 318.2 954.8 C 317.1 953.2 314.5 954.7 315.6 956.3 Z M 309.5 929.5 C 336.5 961.5 366.5 991.4 402.3 1013.6 C 403.9 1014.6 405.5 1012 403.8 1011 C 368.2 989 338.4 959.3 311.6 927.4 C 310.4 925.9 308.3 928.1 309.5 929.5 Z M 338.2 927.8 C 363.9 957.7 392.4 986.1 424.2 1009.5 C 425.8 1010.6 427.3 1008 425.7 1006.9 C 394.1 983.7 365.8 955.3 340.3 925.7 C 339 924.2 336.9 926.3 338.2 927.8 Z M 371 929.9 C 388.4 951.2 408.4 970.2 430.6 986.5 C 432.2 987.6 433.7 985 432.1 983.9 C 410.1 967.8 390.3 948.9 373.1 927.8 C 371.9 926.3 369.8 928.4 371 929.9 Z M 397.8 928.8 C 409 941.4 421.8 952.2 436 961.3 C 437.6 962.3 439.1 959.7 437.5 958.7 C 423.5 949.8 410.9 939 399.9 926.7 C 398.6 925.2 396.5 927.3 397.8 928.8 Z" id="Shape" fill="#E8E8E8" fill-rule="nonzero" stroke="none" stroke-width="1" transform="matrix(1, 0, 0, 1, 0, -7.105427357601002e-15)"/>
  <path d="M 259.4 764 C 265.9 777.7 270.3 792.1 272.8 807.1 C 272.9 807.8 273.6 808.2 274.2 808.2 C 274.8 808.2 278 808.1 278.2 809.1 C 278.3 809.5 276.3 811.8 276.1 812.3 C 275.5 813.9 275.5 815.8 276.1 817.4 C 276.9 819.3 278.4 820.6 280.2 821.3 C 280.8 821.6 281.5 821.7 282.2 821.8 C 282.8 821.9 283.4 821.9 284 821.8 C 284.8 821.7 284.7 821.8 283.8 822.2 C 282.8 823.7 281.4 823.9 281 826.1 C 280.7 828.2 281.7 830.2 282.5 832 C 285.8 839 287.7 846.4 290.4 853.7 C 299.7 878.5 317.5 899 337.6 915.9 C 339.1 917.1 341.2 915 339.7 913.8 C 319 896.4 300.6 875.1 291.9 849 C 290.8 845.6 289.8 842.2 288.6 838.9 C 287.6 836 285.7 833 284.8 830.1 C 283.8 828.5 283.9 826.7 285.2 824.9 L 286.4 824 C 286.7 823.5 287.3 823.2 287.6 822.6 C 288 821.5 287.7 820.5 286.9 819.7 C 285.6 818.4 283.6 819.1 281.9 818.6 C 275.4 816.7 280.7 812.3 281.2 809.1 C 281.9 804.9 276.7 805.4 273.9 805.2 C 274.4 805.6 274.9 805.9 275.3 806.3 C 272.8 791.1 268.2 776.4 261.6 762.5 C 261.2 760.7 258.6 762.2 259.4 764 Z" id="Path" fill="#E8E8E8" fill-rule="nonzero" stroke="none" stroke-width="1" transform="matrix(1, 0, 0, 1, 0, -7.105427357601002e-15)"/>
  <path d="M 260.5 763.3 C 293 772 321.5 794.1 342.2 820.3 C 364.2 848.1 377.9 881.5 385.3 916 C 385.7 917.9 388.6 917.1 388.2 915.2 C 380.7 880.2 366.7 846.4 344.4 818.2 C 323.4 791.7 294.4 769.3 261.4 760.5 C 259.4 759.9 258.6 762.8 260.5 763.3 Z" id="Path" fill="#E8E8E8" fill-rule="nonzero" stroke="none" stroke-width="1" transform="matrix(1, 0, 0, 1, 0, -7.105427357601002e-15)"/>
  <path d="M 272.3 775.7 C 312.1 814.4 342.8 861.9 361.7 914.2 C 362.4 916 365.3 915.2 364.6 913.4 C 345.5 860.7 314.6 812.7 274.4 773.6 C 273.1 772.2 270.9 774.3 272.3 775.7 Z" id="Path" fill="#E8E8E8" fill-rule="nonzero" stroke="none" stroke-width="1" transform="matrix(1, 0, 0, 1, 0, -7.105427357601002e-15)"/>
  <path d="M 290 838.6 C 298.4 839.5 306.6 841.4 314.4 844.5 C 322 847.5 330.3 851.3 335.1 858.2 C 336.2 859.8 338.8 858.3 337.7 856.7 C 332.9 849.8 325.4 845.9 317.8 842.7 C 308.9 838.9 299.6 836.6 289.9 835.6 C 288.1 835.4 288.1 838.4 290 838.6 Z M 304.9 783.8 C 304.8 795.3 306.7 806.6 310.4 817.5 C 311 819.3 313.9 818.5 313.3 816.7 C 309.7 806.1 307.9 795.1 307.9 783.8 C 307.9 781.9 304.9 781.9 304.9 783.8 Z M 359.8 838.2 C 364.7 819.9 381 809 394.9 797.8 C 409.7 785.9 424 773.2 437.6 760 C 436.8 759.5 435.9 759 435.1 758.5 C 430.6 770.6 429.7 783.3 429.9 796.1 C 430.1 808.9 433 823.6 428.9 836 C 429.4 835.6 429.9 835.3 430.3 834.9 C 427.1 835.1 423.9 835.4 420.7 835.6 C 419.7 835.7 418.7 836.9 419.4 837.9 C 421.7 841 424.4 842 424.3 846.6 C 424.3 849.8 423.5 853.5 422.4 856.5 C 421.3 859.6 418.4 861.7 417.4 864.6 C 416.6 867.2 418.6 869.4 418.6 872 C 418.7 876.3 415.6 879.9 413.4 883.3 C 411.3 886.5 409.4 889.8 407.7 893.2 C 404.3 899.9 401.6 906.8 399.6 914 C 399.1 915.9 402 916.7 402.5 914.8 C 405 905.9 408.6 897.3 413.3 889.3 C 416.5 883.9 422.5 877.6 421.8 870.8 C 421.5 868.1 420.1 867.3 421.3 864.2 C 421.4 864.1 423.2 861.7 423.3 861.5 C 425.2 858.4 426.1 854.9 426.7 851.4 C 427.1 848.8 427.9 845.6 427.5 843 C 426.9 839.3 424.1 839 422 836.2 C 421.6 837 421.1 837.7 420.7 838.5 C 423.9 838.3 427.1 838 430.3 837.8 C 431 837.7 431.5 837.4 431.7 836.7 C 435.5 825.1 433.2 811.6 432.8 799.6 C 432.4 785.9 432.9 772.1 437.8 759.1 C 438.4 757.6 436.3 756.7 435.3 757.6 C 420.8 771.7 405.6 785.2 389.7 797.8 C 376.1 808.6 361.4 819.6 356.7 837.2 C 356.4 839.3 359.3 840.1 359.8 838.2 Z" id="Shape" fill="#E8E8E8" fill-rule="nonzero" stroke="none" stroke-width="1" transform="matrix(1, 0, 0, 1, 0, -7.105427357601002e-15)"/>
  <path d="M 426.5 773 C 416.7 790.1 406.7 807 397.3 824.3 C 388.5 840.3 380.7 856.9 377 874.8 C 376.6 876.7 379.5 877.5 379.9 875.6 C 383.7 857.3 391.8 840.5 400.8 824.2 C 410 807.5 419.7 791.1 429.1 774.5 C 430 772.9 427.4 771.3 426.5 773 Z" id="Path" fill="#E8E8E8" fill-rule="nonzero" stroke="none" stroke-width="1" transform="matrix(1, 0, 0, 1, 0, -7.105427357601002e-15)"/>
  <path d="M 397 800.8 C 398.3 806.5 398.9 812.2 398.7 818 C 398.6 819.9 401.6 819.9 401.7 818 C 401.9 811.9 401.3 806 399.9 800 C 399.4 798.1 396.6 798.9 397 800.8 Z M 413.3 781.7 C 414.4 786 414.6 790.2 414.1 794.5 C 413.9 796.4 416.9 796.4 417.1 794.5 C 417.7 789.9 417.4 785.4 416.2 780.9 C 415.7 779.1 412.8 779.9 413.3 781.7 Z M 414 801.6 C 419.9 798.1 426 795 432.3 792.4 C 434.1 791.7 433.3 788.8 431.5 789.5 C 424.9 792.2 418.6 795.4 412.4 799 C 410.8 800 412.3 802.6 414 801.6 Z M 388.2 851.8 C 392 848.6 395.8 845.5 399.7 842.5 C 403.8 839.3 408.3 835 413.3 833 C 415.1 832.3 414.3 829.4 412.5 830.1 C 408 831.8 404.3 835.1 400.5 838.1 C 395.6 841.9 390.8 845.7 386.1 849.7 C 384.6 850.9 386.7 853 388.2 851.8 Z M 272.4 795.7 C 279.4 796.4 286.4 797.1 293.4 797.7 C 295.3 797.9 295.3 794.9 293.4 794.7 C 286.4 794 279.4 793.3 272.4 792.7 C 270.5 792.5 270.5 795.5 272.4 795.7 Z M 455.9 995.2 L 937.6 995.2 C 939.5 995.2 939.5 992.2 937.6 992.2 L 455.9 992.2 C 453.9 992.2 453.9 995.2 455.9 995.2 Z M 879.7 750.2 L 879.7 794 C 879.7 795.9 882.7 795.9 882.7 794 L 882.7 750.2 C 882.7 748.3 879.7 748.3 879.7 750.2 Z M 810.7 800.7 L 956.2 800.7 C 958.1 800.7 958.1 797.7 956.2 797.7 L 810.7 797.7 C 808.8 797.7 808.7 800.7 810.7 800.7 Z" id="Shape" fill="#E8E8E8" fill-rule="nonzero" stroke="none" stroke-width="1" transform="matrix(1, 0, 0, 1, 0, -7.105427357601002e-15)"/>
  <path d="M 843.3 801.5 L 843.3 839.4 C 843.3 841.3 846.3 841.3 846.3 839.4 L 846.3 801.5 C 846.3 799.5 843.3 799.5 843.3 801.5 Z M 918.3 800.7 L 918.3 834.1 C 918.3 836 921.3 836 921.3 834.1 L 921.3 800.7 C 921.3 798.8 918.3 798.8 918.3 800.7 Z M 870.8 842.3 L 982.1 842.3 C 984 842.3 984 839.3 982.1 839.3 L 870.8 839.3 C 868.9 839.3 868.9 842.3 870.8 842.3 Z M 786.9 1024.2 L 1032.6 1024.2 C 1034.5 1024.2 1034.5 1021.2 1032.6 1021.2 L 786.9 1021.2 C 785 1021.2 785 1024.2 786.9 1024.2 Z M 1125.6 998.3 L 1434.7 998.3 C 1436.6 998.3 1436.6 995.3 1434.7 995.3 L 1125.6 995.3 C 1123.7 995.3 1123.7 998.3 1125.6 998.3 Z M 128.7 1049.5 L 376 1049.5 C 377.9 1049.5 377.9 1046.5 376 1046.5 L 128.7 1046.5 C 126.8 1046.5 126.8 1049.5 128.7 1049.5 Z M 294.9 1079.5 L 496.8 1079.5 C 498.7 1079.5 498.7 1076.5 496.8 1076.5 L 294.9 1076.5 C 292.9 1076.5 292.9 1079.5 294.9 1079.5 Z M 1318 224.5 L 1318 140.9 C 1318 139 1315 139 1315 140.9 L 1315 224.5 C 1315 226.4 1318 226.4 1318 224.5 Z" id="Shape" fill="#E8E8E8" fill-rule="nonzero" stroke="none" stroke-width="1" transform="matrix(1, 0, 0, 1, 0, -7.105427357601002e-15)"/>
  <path d="M 1317.5 140.3 L 1425.8 140.3 C 1427.7 140.3 1427.7 137.3 1425.8 137.3 L 1317.5 137.3 C 1315.6 137.3 1315.6 140.3 1317.5 140.3 Z" id="Path" fill="#E8E8E8" fill-rule="nonzero" stroke="none" stroke-width="1" transform="matrix(1, 0, 0, 1, 0, -7.105427357601002e-15)"/>
  <path d="M 1424.3 139 C 1424.1 167.3 1423.9 195.6 1423.6 223.9 C 1423.6 225.8 1426.6 225.8 1426.6 223.9 C 1426.8 195.6 1427 167.3 1427.3 139 C 1427.3 137.1 1424.3 137.1 1424.3 139 Z" id="Path" fill="#E8E8E8" fill-rule="nonzero" stroke="none" stroke-width="1" transform="matrix(1, 0, 0, 1, 0, -7.105427357601002e-15)"/>
  <path d="M 1318 226 L 1424.8 226 C 1426.7 226 1426.7 223 1424.8 223 L 1318 223 C 1316.1 223 1316.1 226 1318 226 Z M 1320.9 146.7 L 1320.9 217.1 C 1320.9 219 1323.9 219 1323.9 217.1 L 1323.9 146.7 C 1323.9 144.8 1320.9 144.8 1320.9 146.7 Z" id="Shape" fill="#E8E8E8" fill-rule="nonzero" stroke="none" stroke-width="1" transform="matrix(1, 0, 0, 1, 0, -7.105427357601002e-15)"/>
  <path d="M 1323.1 148.2 L 1417.8 148.2 C 1419.7 148.2 1419.7 145.2 1417.8 145.2 L 1323.1 145.2 C 1321.1 145.2 1321.1 148.2 1323.1 148.2 Z" id="Path" fill="#E8E8E8" fill-rule="nonzero" stroke="none" stroke-width="1" transform="matrix(1, 0, 0, 1, 0, -7.105427357601002e-15)"/>
  <path d="M 1416.2 147.4 L 1415.9 216.5 C 1415.9 218.4 1418.9 218.4 1418.9 216.5 L 1419.2 147.4 C 1419.2 145.5 1416.2 145.5 1416.2 147.4 Z" id="Path" fill="#E8E8E8" fill-rule="nonzero" stroke="none" stroke-width="1" transform="matrix(1, 0, 0, 1, 0, -7.105427357601002e-15)"/>
  <path d="M 1323.7 219 L 1417 219 C 1418.9 219 1418.9 216 1417 216 L 1323.7 216 C 1321.8 216 1321.8 219 1323.7 219 Z M 1323.1 198.3 C 1334.6 194.3 1346.7 197.9 1357.9 201.2 C 1369.3 204.5 1380.5 208.5 1391.4 213.1 C 1393.2 213.8 1394 210.9 1392.2 210.2 C 1380.1 205.1 1367.7 200.8 1355.1 197.3 C 1344.4 194.4 1333.1 191.6 1322.3 195.4 C 1320.5 196 1321.3 198.9 1323.1 198.3 Z" id="Shape" fill="#E8E8E8" fill-rule="nonzero" stroke="none" stroke-width="1" transform="matrix(1, 0, 0, 1, 0, -7.105427357601002e-15)"/>
  <path d="M 1361.1 201.7 C 1380 200.6 1397.7 193 1416.4 190.9 C 1418.3 190.7 1418.3 187.7 1416.4 187.9 C 1397.7 190 1380 197.5 1361.1 198.7 C 1359.1 198.9 1359.1 201.9 1361.1 201.7 Z M 1396.9 165.1 C 1392.7 162.7 1396.5 154.8 1401 156.7 C 1403.4 157.7 1403.9 160.6 1402.6 162.7 C 1401.2 165 1398.3 165.4 1395.9 164.7 C 1394 164.2 1393.2 167.1 1395.1 167.6 C 1399.1 168.7 1403.6 167.5 1405.6 163.6 C 1407.4 160.1 1406 155.5 1402.2 153.9 C 1394.4 150.6 1388 163.6 1395.4 167.7 C 1397 168.6 1398.6 166 1396.9 165.1 Z M 1366.3 138.3 C 1366.4 136.6 1366.5 134.9 1367 133.3 C 1367.4 132 1368.4 128.9 1369.9 128.3 C 1372.6 127.3 1373.6 136.8 1373.8 138.6 C 1374 140.5 1377 140.5 1376.8 138.6 C 1376.5 135.1 1375.7 124.1 1370.1 124.9 C 1367.7 125.2 1366 127.9 1365.1 129.9 C 1363.9 132.5 1363.5 135.4 1363.4 138.2 C 1363.3 140.2 1366.3 140.2 1366.3 138.3 Z M 1383.1 604.8 L 1383.1 640.9 C 1383.1 642.8 1386.1 642.8 1386.1 640.9 L 1386.1 604.8 C 1386.1 602.9 1383.1 602.9 1383.1 604.8 Z" id="Shape" fill="#E8E8E8" fill-rule="nonzero" stroke="none" stroke-width="1" transform="matrix(1, 0, 0, 1, 0, -7.105427357601002e-15)"/>
  <path d="M 1346.8 645.3 L 1428.5 645.3 C 1430.4 645.3 1430.4 642.3 1428.5 642.3 L 1346.8 642.3 C 1344.9 642.3 1344.9 645.3 1346.8 645.3 Z" id="Path" fill="#E8E8E8" fill-rule="nonzero" stroke="none" stroke-width="1" transform="matrix(1, 0, 0, 1, 0, -7.105427357601002e-15)"/>
  <path d="M 1358.3 646.2 L 1358.3 663.2 C 1358.3 665.1 1361.3 665.1 1361.3 663.2 L 1361.3 646.2 C 1361.3 644.3 1358.3 644.3 1358.3 646.2 Z M 1402 647.1 L 1402 667.3 C 1402 669.2 1405 669.2 1405 667.3 L 1405 647.1 C 1405 645.1 1402 645.1 1402 647.1 Z" id="Shape" fill="#E8E8E8" fill-rule="nonzero" stroke="none" stroke-width="1" transform="matrix(1, 0, 0, 1, 0, -7.105427357601002e-15)"/>
  <path d="M 1380.8 671.2 L 1437.5 671.2 C 1439.4 671.2 1439.4 668.2 1437.5 668.2 L 1380.8 668.2 C 1378.9 668.2 1378.9 671.2 1380.8 671.2 Z" id="Path" fill="#E8E8E8" fill-rule="nonzero" stroke="none" stroke-width="1" transform="matrix(1, 0, 0, 1, 0, -7.105427357601002e-15)"/>
  <path d="M 688.9 963.6 C 720.4 942.3 736.2 931.6 740.3 930.3 C 750.3 927.1 782.7 916.8 811 934.1 C 831.3 946.5 850 973.4 842.2 991.4 C 836.6 1004.2 819.5 1008.2 804 1011.9 C 781.1 1017.3 761.5 1014.3 750.5 1011.7 C 746.2 1015.9 739.3 1021.5 729.6 1025.2 C 713.5 1031.4 694.9 1030.3 694 1026.6 C 693.6 1024.7 697.6 1021 717 1013.4 C 714.7 1010.9 711.3 1007.9 706.5 1005.8 C 692.3 999.3 678.1 1005.6 675.4 1006.9 C 689.3 1015 692.3 1019.2 691.6 1021.5 C 689.8 1027.3 661.5 1029.2 653.9 1015.9 C 653.1 1014.6 650.9 1010.1 652.7 1001.6 C 656.3 986 669.3 976.9 688.9 963.6 Z" id="Path" fill="#161616" fill-rule="nonzero" stroke="none" stroke-width="1" transform="matrix(1, 0, 0, 1, 0, -7.105427357601002e-15)"/>
  <path d="M 826.1 985.8 C 829.3 979.2 843.7 980.8 849.3 981.4 C 856.5 982.2 862.9 982.9 868.7 988 C 873.1 991.8 879.5 1000.1 877.2 1006.8 C 875.1 1013.2 867.2 1012.7 851.9 1020.2 C 849.3 1021.5 824.3 1033.8 826 1041.9 C 826.7 1045.2 831.2 1045.1 845.5 1051.2 C 857.9 1056.4 865.2 1059.6 871.3 1066.6 C 874.3 1070.1 880.3 1077 878.7 1084 C 875.7 1096.9 848.9 1099.1 848.2 1097.1 C 847.6 1095.4 866.4 1090.7 866.6 1081.9 C 866.8 1075.2 856.3 1069.8 849.7 1066.3 C 830.3 1056.2 817.2 1059.8 812.1 1050.1 C 809.2 1044.6 810.8 1038.7 811.1 1037.6 C 812.6 1032.2 816.8 1027.6 837.3 1017.3 C 856 1007.9 864.3 1005.7 864.2 1001.5 C 864.1 997.6 856.9 994.4 852.5 993.3 C 840.1 990 831 997.8 826.8 993.4 C 825 991.4 825.1 988 826.1 985.8 Z M 655.3 937.4 L 674.2 951.5 C 683.2 950.6 692.1 949.8 701.1 948.9 C 706.7 943.5 712.3 938 717.9 932.6 C 718.3 936 719.1 943.7 719.4 947.4 C 722.9 980.7 723.2 983.6 721.1 987.4 C 714.2 999.7 690.9 1004.7 677.5 996.1 C 671 991.9 668.5 985.6 663.8 973.5 C 658.1 958.9 656.1 946.1 655.3 937.4 Z" id="Shape" fill="#161616" fill-rule="nonzero" stroke="none" stroke-width="1" transform="matrix(1, 0, 0, 1, 0, -7.105427357601002e-15)"/>
  <path d="M 680.7 972 C 679.2 975.1 675.9 977 672.5 976.4 C 671.6 976.2 671.2 977.7 672.1 977.8 C 676.2 978.5 680.3 976.5 682 972.7 C 682.4 971.9 681.2 971.1 680.7 972 Z M 694.6 971 C 697.9 974.2 702.3 975.6 706.8 974.9 C 707.8 974.8 707.3 973.3 706.4 973.5 C 702.4 974.1 698.5 972.8 695.6 970 C 694.9 969.3 693.9 970.3 694.6 971 Z M 689.3 980.5 C 689 980.5 688.8 980.4 688.5 980.4 C 688.6 980.3 688.6 980.1 688.7 980 C 688.9 980.2 689.2 980.4 689.4 980.6 C 689.4 980.4 689.3 980.3 689.3 980.1 C 689 979.2 687.6 979.6 687.9 980.5 C 688.4 982.7 689.2 986.1 686.5 987.2 C 685.6 987.6 686 989 686.9 988.6 C 690.5 987.1 690.1 983.2 689.4 980 C 688.9 980.1 688.4 980.3 688 980.4 C 688 980.6 688.1 980.7 688.1 980.9 C 688.2 981.2 688.5 981.5 688.8 981.5 C 691.4 981.3 689.3 977.7 688.1 979.8 C 687.6 980.5 688.8 981.3 689.3 980.5 Z" id="Shape" fill="#FFFFFF" fill-rule="nonzero" stroke="none" stroke-width="1" transform="matrix(1, 0, 0, 1, 0, -7.105427357601002e-15)"/>
  <path d="M 688.3 981.2 C 688.8 982.9 688.9 984.8 690 986.3 C 690.9 987.5 692.3 988.1 693.8 987.8 C 694.7 987.6 694.3 986.2 693.4 986.4 C 690.6 987 690.2 982.6 689.7 980.8 C 689.5 979.9 688.1 980.3 688.3 981.2 Z M 683.5 982.6 C 680.6 981.3 677.6 980.7 674.4 980.9 C 673.4 981 673.4 982.5 674.4 982.4 C 677.3 982.2 680.1 982.7 682.7 983.9 C 683.6 984.3 684.4 983 683.5 982.6 Z M 680.9 984.6 C 678.4 984.8 676.2 985.8 674.5 987.5 C 673.8 988.2 674.9 989.2 675.6 988.6 C 677.1 987.2 678.9 986.3 681 986.1 C 681.8 986 681.8 984.5 680.9 984.6 Z M 695.2 981.9 C 698.1 980.8 701 980.4 704.1 980.7 C 705.1 980.8 705.1 979.3 704.1 979.2 C 700.9 978.9 697.8 979.4 694.8 980.5 C 693.9 980.8 694.2 982.3 695.2 981.9 Z M 697.2 984.6 C 699.4 984.3 701.5 984.5 703.6 985.3 C 704.5 985.6 704.9 984.2 704 983.9 C 701.8 983.1 699.5 982.9 697.2 983.2 C 696.2 983.2 696.2 984.8 697.2 984.6 Z M 673.6 967.6 C 675.1 966.7 676.9 966.7 678.4 967.6 C 679.2 968.1 680 966.8 679.2 966.3 C 677.2 965.2 674.9 965.2 672.9 966.3 C 672 966.8 672.8 968.1 673.6 967.6 Z M 694.6 965.6 C 696.1 964.8 697.8 964.6 699.6 964.8 C 700.5 964.9 701 963.5 700 963.4 C 697.9 963.1 695.8 963.4 693.9 964.4 C 692.9 964.7 693.7 966 694.6 965.6 Z" id="Shape" fill="#FFFFFF" fill-rule="nonzero" stroke="none" stroke-width="1" transform="matrix(1, 0, 0, 1, 0, -7.105427357601002e-15)"/>
  <path d="M 670.7 934.2 C 673.8 932.9 676.9 931.6 679.9 930.2 C 679.3 929.8 678.8 929.4 678.2 928.9 C 677 932.7 675.2 936.1 672.8 939.3 C 672.2 940.1 673.2 941.3 674.1 941 C 677.5 939.7 680.9 938.5 684.3 937.2 C 685.6 936.7 685.1 934.5 683.7 935 C 680.3 936.3 676.9 937.5 673.5 938.8 C 673.9 939.4 674.3 939.9 674.8 940.5 C 677.4 937.2 679.2 933.6 680.5 929.6 C 680.8 928.6 679.7 928 678.8 928.3 C 675.7 929.6 672.6 930.9 669.6 932.3 C 668.2 932.9 669.4 934.8 670.7 934.2 Z M 675.7 916 C 677.8 914.8 679.9 914 682.2 913.5 C 681.8 912.9 681.4 912.4 680.9 911.8 C 680 913.8 678.9 915.8 677.6 917.6 C 677.1 918.4 677.8 919.2 678.6 919.3 C 681.3 919.5 683.8 918.8 685.9 917.2 C 687 916.3 685.9 914.4 684.8 915.3 C 683 916.7 681 917.3 678.7 917.1 C 679 917.7 679.3 918.2 679.7 918.8 C 681 916.9 682.1 915 683 913 C 683.4 912.1 682.7 911.1 681.7 911.3 C 679.2 911.8 676.8 912.7 674.6 914 C 673.3 914.8 674.4 916.7 675.7 916 Z M 692.2 940.2 C 688.9 936.9 694.6 935 695.2 932.1 C 695.8 928.7 691.8 925.5 696.3 922.9 C 697.6 922.2 696.4 920.2 695.2 921 C 693.6 921.9 692.3 923.3 691.9 925.2 C 691.3 928.4 694.1 930.3 691.7 933.2 C 690.6 934.6 689.3 935 688.9 936.9 C 688.5 938.8 689.3 940.4 690.6 941.8 C 691.7 942.8 693.3 941.2 692.2 940.2 Z" id="Shape" fill="#161616" fill-rule="nonzero" stroke="none" stroke-width="1" transform="matrix(1, 0, 0, 1, 0, -7.105427357601002e-15)"/>
  <path d="M 968.3 654.7 C 717.6 672.8 466.9 690.8 216.3 708.9 C 209.5 527.1 202.7 345.3 196 163.5 L 951.4 153.3 C 957 320.4 962.6 487.5 968.3 654.7 Z" id="Path" stroke="#161616" stroke-width="3.5" fill="#FFFFFF" fill-rule="nonzero" transform="matrix(1, 0, 0, 1, 0, -7.105427357601002e-15)"/>
  <path d="M 409 252 L 554.9 252 C 556.8 252 556.8 249 554.9 249 L 409 249 C 407.1 249 407.1 252 409 252 Z M 463.6 264.3 L 613.9 264.3 C 615.8 264.3 615.8 261.3 613.9 261.3 L 463.6 261.3 C 461.6 261.3 461.6 264.3 463.6 264.3 Z M 226.4 557.7 C 228.2 599.5 230 641.4 231.8 683.2 C 231.9 685.1 234.9 685.1 234.8 683.2 C 233 641.4 231.2 599.5 229.4 557.7 C 229.3 555.8 226.3 555.8 226.4 557.7 Z M 446.7 533.3 L 459.7 533.3 C 461.6 533.3 461.6 530.3 459.7 530.3 L 446.7 530.3 C 444.8 530.3 444.8 533.3 446.7 533.3 Z M 471 533.3 L 504.2 533.3 C 506.1 533.3 506.1 530.3 504.2 530.3 L 471 530.3 C 469.1 530.3 469.1 533.3 471 533.3 Z M 529.3 531.7 L 569 531.7 C 570.9 531.7 570.9 528.7 569 528.7 L 529.3 528.7 C 527.4 528.7 527.4 531.7 529.3 531.7 Z M 464.6 554.3 L 513.2 554.3 C 515.1 554.3 515.1 551.3 513.2 551.3 L 464.6 551.3 C 462.6 551.3 462.6 554.3 464.6 554.3 Z M 488 543 L 544.7 543 C 546.6 543 546.6 540 544.7 540 L 488 540 C 486.1 540 486.1 543 488 543 Z M 588.4 649.9 L 683.9 649.9 C 685.8 649.9 685.8 646.9 683.9 646.9 L 588.4 646.9 C 586.5 646.9 586.5 649.9 588.4 649.9 Z M 666.9 658 L 717.1 658 C 719 658 719 655 717.1 655 L 666.9 655 C 665 655 665 658 666.9 658 Z M 710.6 645.8 L 760 645.8 C 761.9 645.8 761.9 642.8 760 642.8 L 710.6 642.8 C 708.7 642.8 708.7 645.8 710.6 645.8 Z M 794.8 374.7 L 886.3 374.7 C 888.2 374.7 888.2 371.7 886.3 371.7 L 794.8 371.7 C 792.9 371.7 792.9 374.7 794.8 374.7 Z M 766.5 379.5 L 795.6 379.5 C 797.5 379.5 797.5 376.5 795.6 376.5 L 766.5 376.5 C 764.5 376.5 764.5 379.5 766.5 379.5 Z M 772.1 387.6 L 870 387.6 C 871.9 387.6 871.9 384.6 870 384.6 L 772.1 384.6 C 770.2 384.6 770.2 387.6 772.1 387.6 Z M 892.8 380.3 L 911.4 380.3 C 913.3 380.3 913.3 377.3 911.4 377.3 L 892.8 377.3 C 890.8 377.3 890.8 380.3 892.8 380.3 Z M 868.5 502.5 L 896 502.5 C 897.9 502.5 897.9 499.5 896 499.5 L 868.5 499.5 C 866.5 499.5 866.5 502.5 868.5 502.5 Z M 850.7 510.6 L 880.6 510.6 C 882.5 510.6 882.5 507.6 880.6 507.6 L 850.7 507.6 C 848.7 507.6 848.7 510.6 850.7 510.6 Z M 865.2 518.7 L 924.3 518.7 C 926.2 518.7 926.2 515.7 924.3 515.7 L 865.2 515.7 C 863.3 515.7 863.3 518.7 865.2 518.7 Z M 902.5 509 L 920.3 509 C 922.2 509 922.2 506 920.3 506 L 902.5 506 C 900.5 506 900.5 509 902.5 509 Z M 490.6 384.3 L 532.5 384.3 C 534.4 384.3 534.4 381.3 532.5 381.3 L 490.6 381.3 C 488.7 381.3 488.7 384.3 490.6 384.3 Z M 521.1 392.9 L 583 392.9 C 584.9 392.9 584.9 389.9 583 389.9 L 521.1 389.9 C 519.2 389.9 519.1 392.9 521.1 392.9 Z M 575.4 381.4 L 610.6 381.4 C 612.5 381.4 612.5 378.4 610.6 378.4 L 575.4 378.4 C 573.5 378.4 573.5 381.4 575.4 381.4 Z M 217.5 221.8 L 224.1 449.6 C 224.7 471.2 225.3 492.7 226 514.3 C 226.1 516.2 229.1 516.2 229 514.3 L 222.4 286.5 C 221.8 264.9 221.2 243.4 220.5 221.8 C 220.5 219.9 217.5 219.9 217.5 221.8 Z M 944.4 469.9 L 948.9 620.4 C 949 622.3 952 622.3 951.9 620.4 L 947.4 469.9 C 947.4 468 944.4 468 944.4 469.9 Z" id="Shape" fill="#161616" fill-rule="nonzero" stroke="none" stroke-width="1" transform="matrix(1, 0, 0, 1, 0, -7.105427357601002e-15)"/>
  <path d="M 737.3 446.9 C 737.9 453 738.5 459.2 739 465.3 C 744.8 463.8 750.5 462.2 756.3 460.7 C 755.5 454.6 754.8 448.4 754 442.3 C 748.4 443.8 742.9 445.4 737.3 446.9 Z M 733.8 493.6 C 739.8 492.8 745.7 492.1 751.7 491.3 C 752.5 498.6 753.2 505.9 754 513.2 C 748.6 513.4 743.2 513.6 737.9 513.8 C 736.5 507 735.2 500.3 733.8 493.6 Z M 755.7 537.9 C 757.6 544.2 759.5 550.6 761.5 556.9 C 766.9 554.4 772.3 551.9 777.6 549.4 C 775.9 543.8 774.1 538.3 772.4 532.7 C 766.9 534.5 761.3 536.2 755.7 537.9 Z" id="Shape" fill-rule="nonzero" stroke="none" stroke-width="1" style="fill: rgb(238, 112, 44);" transform="matrix(1, 0, 0, 1, 0, -7.105427357601002e-15)"/>
  <path d="M 360.4 597.5 C 361.7 616.9 363 636.3 364.3 655.6 C 398.3 653.4 432.3 651.3 466.3 649.1 C 466.9 631.7 467.6 614.2 468.2 596.8 C 432.3 597.1 396.3 597.3 360.4 597.5 Z" id="Path" fill-rule="nonzero" stroke="none" stroke-width="1" style="fill: rgb(238, 112, 44);" transform="matrix(1, 0, 0, 1, 0, -7.105427357601002e-15)"/>
  <ellipse id="Oval" cx="783.1" cy="196.9" rx="7.1" ry="5.9" fill-rule="nonzero" stroke="none" stroke-width="1" style="fill: rgb(238, 112, 44);" transform="matrix(1, 0, 0, 1, 0, -7.105427357601002e-15)"/>
  <ellipse id="Oval" fill="#EC615B" cx="300.6" cy="243.1" rx="5.9" ry="3.9" fill-rule="nonzero" stroke="none" stroke-width="1" transform="matrix(1, 0, 0, 1, 0, -7.105427357601002e-15)"/>
  <ellipse id="Oval" fill="#EC615B" cx="394.5" cy="354.7" rx="4.6" ry="5.4" fill-rule="nonzero" stroke="none" stroke-width="1" transform="matrix(1, 0, 0, 1, 0, -7.105427357601002e-15)"/>
  <path d="M 352.3 225.4 C 354.1 225.1 357.6 241.8 366.2 272.1 C 377.5 312 388.7 344.2 396.8 366.2 C 384.5 373.8 357 388.3 319.5 388.8 C 293 389.1 272.1 382.3 259.7 377.1 C 284 379.8 303.6 379.1 317.3 377.8 C 339 375.8 335.2 373.5 351.6 372.7 C 358.4 372.4 367.3 372.4 376.4 366.9 C 379.7 364.9 382.1 362.7 383.7 361.1 C 377.3 347.9 369.1 328.5 362.5 304.2 C 352 264.7 349.7 225.9 352.3 225.4 Z" id="Path" fill="#6D6C6C" opacity="0.21" fill-rule="nonzero" stroke="none" stroke-width="1" transform="matrix(1, 0, 0, 1, 0, -7.105427357601002e-15)"/>
  <path d="M 446 333.9 C 447.6 346.6 450.5 360.8 455.3 376 C 469 419.2 492.1 450 509.5 469 C 499.1 476.7 486.2 484.7 470.7 491.4 C 423.7 511.7 379.8 508.7 356.3 505.1 L 353.6 489.2 C 363.6 489.5 374.2 489.3 385.3 488.7 C 424.9 486.2 458.9 477.3 486 467.4 C 477.4 452.8 471.2 440.2 466.9 430.7 C 456.5 408 448.8 390.9 446.1 367.8 C 444.4 353.7 445.1 341.8 446 333.9 Z" id="Path" fill="#6D6C6C" opacity="0.25" fill-rule="nonzero" stroke="none" stroke-width="1" transform="matrix(1, 0, 0, 1, 0, -7.105427357601002e-15)"/>
  <path d="M 763.9 400.1 C 764.9 422.9 767.3 441.8 769.4 455.4 C 774.3 486.6 777.9 508.2 790.7 532.5 C 798.7 547.6 807.7 558.7 814.2 565.9 C 802.9 575.6 787.7 586.6 768.2 595.4 C 719.2 617.7 673.2 613.2 651.7 609.6 C 650.6 604.7 649.5 599.8 648.4 594.8 C 651.1 595 655.3 595.2 660.4 595.3 C 677.4 595.7 712.8 596.3 753.4 582.7 C 764.8 578.9 780.8 572.5 798.8 561.9 C 791.7 552.4 784.7 541.1 778.6 528 C 754.5 476.3 759.3 426.1 763.9 400.1 Z" id="Path" fill="#6D6C6C" opacity="0.14" fill-rule="nonzero" stroke="none" stroke-width="1" transform="matrix(1, 0, 0, 1, 0, -7.105427357601002e-15)"/>
  <path d="M 840.5 175.8 C 842.5 185.1 845.4 199.3 848.3 217 C 853.7 251.2 853.3 263.6 859.6 283.8 C 862.9 294.3 868.8 309.2 879.9 326.2 C 870.6 333.8 859 341.7 844.7 348.3 C 797.9 370 753.1 363.9 732.5 359.6 C 732.7 355.6 732.9 351.6 733.1 347.7 C 735.7 348.4 739.6 349.3 744.4 350.1 C 750.7 351.1 774 354.5 817.8 343.5 C 829.9 340.5 846.2 335.7 864.9 328 C 861.3 321.6 856 311.6 851.2 298.8 C 837.2 261.7 837.3 229.5 837.5 212.9 C 837.6 203.8 838.2 191.1 840.5 175.8 Z" id="Path" fill="#6D6C6C" opacity="0.18" fill-rule="nonzero" stroke="none" stroke-width="1" transform="matrix(1, 0, 0, 1, 0, -7.105427357601002e-15)"/>
  <g id="Group" transform="matrix(1, 0, 0, 1, 237.99999999999997, 173)" fill="#161616" fill-rule="nonzero" stroke="none" stroke-width="1">
    <path d="M4.7,46.7 C-5.2,99.1 4.8,152.1 14.8,203.7 C15.2,205.6 18.1,204.8 17.7,202.9 C7.8,151.9 -2.1,99.4 7.6,47.5 C7.9,45.7 5,44.8 4.7,46.7 Z" id="Path"/>
    <path d="M7.5,46.3 C21.8,55.9 39.1,57.6 56,56.4 C75.3,55 94.4,50.9 113.5,47.7 C115.4,47.4 114.6,44.5 112.7,44.8 C94.4,47.8 76.1,51.7 57.6,53.2 C40.7,54.6 23.4,53.3 9,43.6 C7.4,42.6 5.9,45.2 7.5,46.3 L7.5,46.3 Z M111.5,49.8 C114.3,97.6 121.5,146.4 145.7,188.4 C146.7,190.1 149.3,188.6 148.3,186.9 C124.4,145.3 117.3,97 114.5,49.8 C114.4,47.9 111.4,47.9 111.5,49.8 Z" id="Shape"/>
    <path d="M17.3,204.5 C40,211.1 64.4,207.1 87.5,205.2 C108,203.5 130,202.7 147.6,190.7 C149.2,189.6 147.7,187 146.1,188.1 C128.4,200.2 106.2,200.6 85.6,202.3 C63.4,204.1 40,207.8 18.1,201.5 C16.2,201.1 15.4,204 17.3,204.5 L17.3,204.5 Z M55.7,70.7 C53.7,69.8 55.9,67.9 57.1,67.6 C58.6,67.2 61.5,67 62.2,68.7 C62.7,70 61.9,71.7 60.7,72.2 C58.8,73.1 56.7,72 55.4,70.7 C54,69.3 51.9,71.4 53.3,72.8 C55.8,75.3 59.9,76.6 63,74.3 C65.5,72.5 66.4,68.5 64.3,66.1 C61.9,63.4 56.8,63.7 54.1,65.7 C51.7,67.5 51.2,71.8 54.3,73.2 C56,74.1 57.5,71.5 55.7,70.7 L55.7,70.7 Z" id="Shape"/>
    <path d="M95.8,204.9 C88.6,241.4 96.3,278.3 104.1,314.1 C104.5,316 107.4,315.2 107,313.3 C99.3,278.1 91.7,241.7 98.7,205.7 C99.1,203.8 96.2,203 95.8,204.9 L95.8,204.9 Z M137.1,166.6 C160.2,162.2 183.6,160.6 207,161.5 L205.5,160 C200.8,208.2 221.4,254.1 246.4,294 C247.4,295.6 250,294.1 249,292.5 C224.3,253 203.8,207.7 208.5,160 C208.6,159.2 207.7,158.5 207,158.5 C183.3,157.6 159.6,159.3 136.3,163.7 C134.4,164.1 135.2,167 137.1,166.6 L137.1,166.6 Z" id="Shape"/>
    <path d="M105.7,316.2 C154.3,321.9 203.6,314.6 248.6,295.4 C250.4,294.6 248.8,292.1 247.1,292.8 C202.7,311.8 153.7,318.8 105.7,313.2 C103.8,313 103.8,316 105.7,316.2 L105.7,316.2 Z M155.9,178.9 C155.9,178.8 156.2,178.3 156.2,178.1 C156.3,177.7 156.6,177.3 156.9,177 C157.5,176.5 158.2,176.1 159,176 C160.5,175.8 161.9,176.6 162.3,178.1 C162.6,179.3 162.1,180.9 160.7,181.1 C159.4,181.3 158.2,180.4 158,179.1 C157.7,177.2 154.8,178 155.1,179.9 C155.6,183.4 160.1,185.1 163,183.4 C166.2,181.5 166,176.6 163.3,174.3 C160.3,171.8 155.3,173.1 153.6,176.5 C152.8,178.2 152.8,180.5 154.7,181.5 C156.2,182.3 158.4,181.6 158.8,179.7 C159.1,177.8 156.2,177 155.9,178.9 L155.9,178.9 Z M14.6,101.1 C41.2,104.8 67.6,99.3 93.1,92 C95,91.5 94.2,88.6 92.3,89.1 C67.3,96.2 41.4,101.8 15.4,98.2 C13.5,97.9 12.7,100.8 14.6,101.1 L14.6,101.1 Z M19.6,120.7 C33.4,122.2 47.2,120.8 60.5,116.6 C62.3,116 61.6,113.1 59.7,113.7 C46.7,117.8 33.2,119.1 19.6,117.7 C17.7,117.5 17.7,120.5 19.6,120.7 L19.6,120.7 Z M19.6,144.9 C46,148 72.6,146.1 98.2,139.4 C100.1,138.9 99.3,136 97.4,136.5 C72,143.2 45.7,145 19.6,141.9 C17.7,141.6 17.7,144.6 19.6,144.9 Z M118.4,298.4 C144.9,299.6 171.4,296.4 196.8,288.8 C198.6,288.3 197.9,285.4 196,285.9 C170.8,293.4 144.7,296.6 118.4,295.4 C116.4,295.3 116.4,298.3 118.4,298.4 Z M123.5,275.5 C135.3,275.1 147.1,274.2 158.9,272.9 C160.8,272.7 160.8,269.7 158.9,269.9 C147.1,271.2 135.4,272.1 123.5,272.5 C121.6,272.6 121.6,275.6 123.5,275.5 Z M133.1,234.3 C140.9,235.3 149,233.3 156.7,232.2 C165.2,230.9 173.6,229.7 182.1,228.4 C184,228.1 183.2,225.2 181.3,225.5 C173.5,226.7 165.6,227.9 157.8,229 C149.7,230.2 141.3,232.4 133.1,231.3 C131.2,231 131.2,234 133.1,234.3 Z M486.5,10.1 C475.6,63.6 474.5,118.6 483.2,172.5 C483.5,174.4 486.4,173.6 486.1,171.7 C477.5,118.4 478.7,63.8 489.4,10.9 C489.8,9 486.9,8.2 486.5,10.1 Z" id="Shape"/>
    <path d="M489.9,10.8 C526.2,2.5 563.7,0.8 600.7,5.8 C602.6,6.1 603.4,3.2 601.5,2.9 C564,-2.2 526,-0.5 489.1,7.9 C487.3,8.4 488.1,11.3 489.9,10.8 L489.9,10.8 Z" id="Path"/>
    <path d="M599.8,3.1 C598.7,54.6 599.4,109 625.5,155.1 C626.5,156.8 629,155.3 628.1,153.6 C602.3,108 601.7,54.1 602.8,3.1 C602.9,1.2 599.9,1.2 599.8,3.1 L599.8,3.1 Z" id="Path"/>
    <path d="M485.5,174.1 C496.7,177.5 508.7,177.7 520.3,177.8 C532.8,177.9 545.3,177.1 557.8,175.4 C581.7,172.2 605,165.7 627.3,156.3 C629.1,155.6 627.5,153 625.8,153.7 C603.5,163.1 580,169.5 556,172.6 C544.8,174 533.5,174.8 522.2,174.7 C510.3,174.7 497.8,174.6 486.4,171.1 C484.4,170.7 483.7,173.6 485.5,174.1 L485.5,174.1 Z M546.7,14 C543.3,15.2 541.8,19.1 543,22.4 C544.4,26.1 548.7,27 551.9,24.8 C555,22.6 556,18.2 553,15.4 C550.4,13 545.9,12.9 543.5,15.5 C542.2,16.9 544.3,19 545.6,17.6 C548.6,14.4 554.5,18.9 550.4,22.1 C548.8,23.3 546.5,23.3 545.8,21.2 C545.3,19.6 545.8,17.4 547.5,16.8 C549.3,16.2 548.5,13.3 546.7,14 L546.7,14 Z M488,56.6 C515.3,57.3 542.5,56.8 569.7,55 C571.6,54.9 571.6,51.9 569.7,52 C542.5,53.8 515.2,54.4 488,53.6 C486,53.6 486,56.6 488,56.6 Z M490.7,71.8 C500.9,72.2 511.1,72.6 521.2,73 C523.1,73.1 523.1,70.1 521.2,70 C511,69.6 500.8,69.2 490.7,68.8 C488.7,68.7 488.7,71.7 490.7,71.8 Z M487.9,93 C513.6,94.4 539.6,95.6 564.9,90 C566.8,89.6 566,86.7 564.1,87.1 C539,92.6 513.3,91.4 487.9,90 C486,89.9 486,92.9 487.9,93 Z M115.1,418.1 C112.8,438.1 112,458.2 112.7,478.3 C112.8,480.2 115.8,480.2 115.7,478.3 C115,458.2 115.8,438.1 118.1,418.1 C118.3,416.2 115.3,416.2 115.1,418.1 Z" id="Shape" style=""/>
    <path d="M116.1,419.3 C151.7,419.3 187.4,418.8 223,417.7 C224.9,417.6 224.9,414.6 223,414.7 C187.4,415.8 151.7,416.3 116.1,416.3 C114.2,416.3 114.2,419.3 116.1,419.3 Z" id="Path"/>
    <path d="M222.7,416.3 L223.6,468.4 C223.6,470.3 226.6,470.3 226.6,468.4 L225.7,416.3 C225.7,414.4 222.6,414.4 222.7,416.3 Z" id="Path"/>
    <path d="M112.4,476.1 C112.6,482.6 123.9,479.7 127.6,479.5 C138.2,478.8 148.8,478.1 159.3,477.3 C180.8,475.8 202.3,474.4 223.8,472.9 C225.7,472.8 225.7,469.8 223.8,469.9 C205.5,471.1 187.3,472.4 169,473.6 L142.9,475.4 C140.3,475.6 115.4,478 115.3,476.1 C115.4,474.2 112.4,474.2 112.4,476.1 L112.4,476.1 Z M124.2,432.8 C148.2,431.7 172.2,432.6 196,435.6 C197.9,435.8 197.9,432.8 196,432.6 C172.2,429.6 148.2,428.7 124.2,429.8 C122.2,429.9 122.2,432.9 124.2,432.8 Z M125.1,448 C138.5,447 152,445.9 165.4,444.9 C167.3,444.8 167.3,441.8 165.4,441.9 C152,442.9 138.5,444 125.1,445 C123.2,445.1 123.2,448.1 125.1,448 Z M129.6,463.3 C148.9,460.8 169.9,455.7 189.3,459.2 C191.2,459.5 192,456.7 190.1,456.3 C170.3,452.7 149.3,457.7 129.6,460.3 C127.8,460.6 127.7,463.6 129.6,463.3 Z M389.7,247.9 C373.8,304.5 375.8,365.1 395.3,420.6 C395.9,422.4 398.8,421.6 398.2,419.8 C378.9,364.8 376.9,304.8 392.6,248.7 C393.1,246.8 390.2,246 389.7,247.9 L389.7,247.9 Z" id="Shape"/>
    <path d="M391.7,248.9 C436.2,248.7 480.5,242.9 523.6,231.6 C525.5,231.1 524.7,228.2 522.8,228.7 C480,239.9 436,245.7 391.7,245.9 C389.7,245.9 389.7,248.9 391.7,248.9 Z" id="Path"/>
    <path d="M522.8,229.8 C521,257.6 522.2,285.6 527.2,313.1 C529.7,327 532.7,340.9 538.2,353.9 C543.7,366.8 551.3,378.5 560.2,389.2 C561.4,390.7 563.6,388.6 562.3,387.1 C553.2,376.2 545.5,364.1 540.1,350.9 C535,338.3 532.2,324.8 529.9,311.5 C525.1,284.6 524,257.1 525.7,229.8 C525.9,227.9 522.9,227.9 522.8,229.8 L522.8,229.8 Z" id="Path"/>
    <path d="M395.7,422.2 C452.3,426.2 511.4,419.8 561,390.6 C562.7,389.6 561.2,387 559.5,388 C510.2,417 451.7,423.1 395.7,419.2 C393.8,419 393.8,422 395.7,422.2 Z M455.9,257.9 C454.2,255 457.6,251.4 460.5,253.7 C463.6,256.2 460.3,260.2 457,258.9 C455.2,258.2 454.4,261.1 456.2,261.8 C458.9,262.9 462.2,261.7 463.8,259.3 C465.6,256.6 464.8,253.2 462.3,251.3 C456.9,247 450.1,253.7 453.3,259.4 C454.3,261.1 456.9,259.6 455.9,257.9 L455.9,257.9 Z M392.7,292.4 C422.6,291.9 452.5,289.8 482.3,286.2 C484.2,286 484.2,283 482.3,283.2 C452.6,286.9 422.7,288.9 392.7,289.4 C390.8,289.5 390.8,292.5 392.7,292.4 Z M493,272.3 C493.9,276.9 494.8,281.6 495.7,286.2 C496.1,288.1 499,287.3 498.6,285.4 C497.7,280.8 496.8,276.1 495.9,271.5 C495.6,269.6 492.7,270.4 493,272.3 Z" id="Shape"/>
    <path d="M495,271.9 C500.5,271.1 506,270.3 511.6,269.4 C513.5,269.1 512.7,266.2 510.8,266.5 C505.3,267.3 499.8,268.1 494.2,269 C492.3,269.3 493.1,272.2 495,271.9 Z" id="Path"/>
    <path d="M510.7,268.5 C511.5,272.8 512.2,277.1 513,281.3 C513.3,283.2 516.2,282.4 515.9,280.5 C515.1,276.2 514.4,271.9 513.6,267.7 C513.3,265.9 510.4,266.7 510.7,268.5 Z" id="Path"/>
    <path d="M498.2,288.5 C504.1,287.3 509.7,285.7 515.3,283.5 C517.1,282.8 516.3,279.9 514.5,280.6 C508.9,282.7 503.2,284.4 497.4,285.6 C495.5,286 496.3,288.9 498.2,288.5 Z M498.7,275.3 C499.8,277.8 501.3,279.8 503.5,281.5 C504.3,282.1 505.8,282.1 506,280.8 C506.8,275.4 508.7,270.6 511.9,266.1 C513,264.5 510.4,263 509.3,264.6 C506,269.2 503.9,274.4 503.1,280 C503.9,279.8 504.8,279.6 505.6,279.3 C503.7,277.8 502.3,276 501.3,273.7 C500.5,272 497.9,273.5 498.7,275.3 L498.7,275.3 Z M499.8,318.2 C498.2,325.4 498.9,332.4 501.8,339.1 C502.6,340.9 505.1,339.3 504.4,337.6 C501.8,331.7 501.3,325.3 502.7,319 C503.1,317.1 500.2,316.3 499.8,318.2 Z" id="Shape"/>
    <path d="M501.8,319.2 C507.8,318.2 513.8,317.3 519.8,316.3 L518,314.5 C517,320.9 517.7,327 520.2,333 C520.9,334.8 523.8,334 523.1,332.2 C520.8,326.8 520,321.1 520.9,315.3 C521.1,314.1 520.3,313.3 519.1,313.5 C513.1,314.4 507.1,315.4 501.1,316.4 C499.1,316.6 499.9,319.5 501.8,319.2 L501.8,319.2 Z" id="Path"/>
    <path d="M503.1,339.2 C509.7,339 516,337.7 522.2,335.5 C524,334.8 523.2,331.9 521.4,332.6 C515.5,334.8 509.4,336 503.1,336.2 C501.2,336.2 501.2,339.2 503.1,339.2 L503.1,339.2 Z M504,325.3 C504.9,327.9 506.4,329.7 508.8,331.1 C509.9,331.7 510.9,330.9 511.1,329.8 C511.7,324.5 513.1,319.4 515.3,314.5 C516.1,312.8 513.5,311.2 512.7,313 C510.3,318.4 508.8,324 508.1,329.8 C508.9,329.4 509.6,328.9 510.4,328.5 C508.7,327.5 507.7,326.3 507,324.4 C506.3,322.7 503.4,323.5 504,325.3 L504,325.3 Z M506,364.6 C506.7,371.3 508.5,377.6 511.5,383.6 C512.3,385.3 514.9,383.8 514.1,382.1 C511.4,376.6 509.7,370.7 509.1,364.6 C508.8,362.7 505.8,362.7 506,364.6 Z" id="Shape"/>
    <path d="M507.4,364.3 C515.1,365 522.3,363.6 529.2,360.2 C528.5,359.9 527.7,359.6 527,359.3 C528.3,365.4 531,370.7 535.2,375.4 C536.5,376.8 538.6,374.7 537.3,373.3 C533.5,369 531.1,364.2 529.9,358.6 C529.7,357.6 528.5,357.3 527.7,357.7 C521.3,360.8 514.5,362 507.4,361.4 C505.5,361.2 505.5,364.2 507.4,364.3 Z" id="Path"/>
    <path d="M514.2,384.7 C522,381.8 529.7,378.7 537.2,375.3 C539,374.5 537.4,371.9 535.7,372.7 C528.4,376 520.9,379 513.4,381.8 C511.6,382.5 512.4,385.4 514.2,384.7 Z M512.6,369.6 C515,371.7 520.5,378.9 523.3,373.6 C524.6,371.2 524.3,367.9 525.1,365.2 C526.3,361.4 528.3,357.9 530.9,354.9 C532.1,353.4 530,351.3 528.8,352.8 C526,356.1 523.8,359.7 522.5,363.9 C521.9,365.8 521.4,367.8 521.1,369.8 C520.7,372.3 520,371.7 518.1,370.5 C516.9,369.7 515.8,368.5 514.7,367.5 C513.3,366.2 511.2,368.3 512.6,369.6 L512.6,369.6 Z M395.4,341.3 C423.4,341 451.3,338.7 478.9,334.3 C480.8,334 480,331.1 478.1,331.4 C450.7,335.7 423.1,338 395.4,338.2 C393.5,338.3 393.5,341.3 395.4,341.3 Z M392.2,300.7 C410.3,301.2 428.3,300.6 446.3,299.1 C448.2,298.9 448.2,295.9 446.3,296.1 C428.3,297.6 410.2,298.1 392.2,297.7 C390.3,297.6 390.3,300.6 392.2,300.7 Z M396.5,347.2 C415.5,348.1 434.5,347.4 453.3,345 C455.2,344.8 455.2,341.8 453.3,342 C434.4,344.3 415.4,345.1 396.5,344.2 C394.6,344.1 394.6,347.1 396.5,347.2 Z M459.7,343.6 C465.1,343.7 470.4,343 475.6,341.3 C477.4,340.7 476.6,337.8 474.8,338.4 C469.9,340 464.9,340.7 459.7,340.6 C457.8,340.6 457.8,343.6 459.7,343.6 L459.7,343.6 Z M406.7,384.8 C429.5,383.4 452.2,381.3 474.8,378.2 C476.7,377.9 476.7,374.9 474.8,375.2 C452.2,378.2 429.5,380.4 406.7,381.8 C404.7,381.9 404.7,384.9 406.7,384.8 Z M409.3,391.8 L431.8,391.8 C433.7,391.8 433.7,388.8 431.8,388.8 L409.3,388.8 C407.4,388.8 407.4,391.8 409.3,391.8 Z M415.8,398.5 C427.5,397.8 439.2,396.7 450.9,395.3 C460.3,394.1 470.4,393.6 478.5,388.1 C480.1,387 478.6,384.4 477,385.5 C468.5,391.3 457.1,391.6 447.2,392.7 C436.8,393.9 426.3,394.8 415.9,395.5 C413.9,395.6 413.8,398.6 415.8,398.5 L415.8,398.5 Z M530,317.7 C548.2,316.8 566.3,314.4 584.2,310.6 C583.6,310.3 583,309.9 582.4,309.6 C590.8,334.6 603.2,357.9 619.1,379 C620.2,380.5 622.9,379 621.7,377.5 C606,356.7 593.7,333.6 585.3,308.9 C585,308.1 584.3,307.7 583.5,307.9 C565.9,311.7 548.1,314 530.1,314.9 C528,314.8 528,317.8 530,317.7 L530,317.7 Z" id="Shape"/>
    <path d="M533.1,402.1 C535.8,405.9 538,409.9 539.9,414.2 C540.1,414.8 541,415.1 541.6,414.9 C556.3,410 570.8,404.6 585,398.5 C592.2,395.4 599.3,392.2 606.4,388.8 C609.8,387.2 613.2,385.5 616.5,383.8 C618.5,382.8 620.8,382.2 621.5,380 C621.7,379.4 621.4,378.6 620.8,378.3 C619.9,377.8 619.4,377.8 618.5,378.3 C617.9,378.6 617.6,379.4 617.8,380 C617.8,380.1 617.9,380.2 617.9,380.3 C618.4,382.2 621.3,381.4 620.8,379.5 C620.8,379.4 620.7,379.3 620.7,379.2 C620.5,379.8 620.2,380.3 620,380.9 L619.3,380.9 C619.1,380.3 618.8,379.8 618.6,379.2 C618,381 611.7,382.9 610,383.8 C607.2,385.2 604.4,386.5 601.5,387.9 C594.8,391.1 588,394.1 581.1,397 C567.9,402.6 554.4,407.6 540.8,412.1 C541.4,412.3 541.9,412.6 542.5,412.8 C540.7,408.5 538.4,404.5 535.7,400.7 C534.6,399 532,400.5 533.1,402.1 L533.1,402.1 Z M550.5,325.5 C550.3,324.2 552.7,323 553.6,323.9 C554.8,325.1 552.8,327.3 551.4,326.8 C549.6,326.1 548.8,329 550.6,329.7 C554.9,331.3 559.1,325.1 555.8,321.8 C554.3,320.3 552,320.4 550.2,321.3 C548.3,322.3 547.3,324.2 547.7,326.3 C547.9,328.2 550.8,327.3 550.5,325.5 Z M107.4,245.5 C118.5,245.7 129.7,245.2 140.7,243.7 C152.2,242.1 163.6,238.8 175.3,239.3 C177.2,239.4 177.2,236.4 175.3,236.3 C164.6,235.9 154.2,238.6 143.7,240.2 C131.7,242.1 119.5,242.8 107.3,242.5 C105.5,242.5 105.5,245.5 107.4,245.5 L107.4,245.5 Z M109,212.4 C126,213.7 143,212.2 159.5,207.9 C161.4,207.4 160.6,204.5 158.7,205 C142.4,209.2 125.8,210.7 109,209.4 C107.1,209.3 107.1,212.3 109,212.4 Z M493.8,128.2 C492.1,139.2 490.7,151.1 497.6,160.7 C498.7,162.3 501.3,160.8 500.2,159.2 C493.8,150.3 495.2,139.2 496.7,129 C497,127.1 494.1,126.3 493.8,128.2 Z" id="Shape"/>
    <path d="M494.7,128.1 C518.5,129 542.3,126.7 565.5,121.2 C564.9,120.9 564.3,120.5 563.7,120.2 C565.8,130.5 569.8,140.1 575.4,148.9 C576.4,150.5 579,149 578,147.4 C572.5,138.8 568.7,129.4 566.6,119.4 C566.4,118.6 565.5,118.2 564.8,118.4 C541.9,123.8 518.4,126.1 494.8,125.2 C492.8,125 492.8,128 494.7,128.1 L494.7,128.1 Z" id="Path"/>
    <path d="M500.1,160.6 C525.9,159.8 551.4,156 576.2,149.2 C578.1,148.7 577.3,145.8 575.4,146.3 C550.8,153.1 525.6,156.9 500.1,157.6 C498.1,157.7 498.1,160.7 500.1,160.6 L500.1,160.6 Z M852.7,859.1 L852.7,892.9 C772.7,924.6 756.4,935.9 757.6,940 C757.9,941 760,944 802,939.1 C843.6,934.2 877.3,927.1 900.7,921.3 C896.6,898.2 892.4,875.1 888.3,852 C876.4,854.4 864.5,856.8 852.7,859.1 L852.7,859.1 Z" id="Shape"/>
  </g>
  <path d="M 1126.6 553.8 C 1124.3 558.1 1123.5 561.6 1123.3 562.4 C 1109 623.2 1090.3 659.1 1078.1 729.6 C 1054.8 865.4 1074.9 1019.7 1076.8 1034.2 C 1083.2 1037 1095.5 1041.2 1111.2 1040.6 C 1125 1040 1135.7 1035.9 1141.8 1033 C 1139.5 988.7 1141.8 934 1157.1 873.7 C 1175.8 799.8 1199.5 775.3 1220.8 688.9 C 1236.6 624.9 1254.9 550.4 1223.3 528.3 C 1199.1 511.1 1142.4 523.7 1126.6 553.8 Z" id="Path" fill="#D6D6D6" fill-rule="nonzero" stroke="none" stroke-width="1" transform="matrix(1, 0, 0, 1, 0, -7.105427357601002e-15)"/>
  <path d="M 1181.9 585.7 C 1165.9 658.7 1151 736.5 1138.4 818.8 C 1126.5 896.2 1117.6 970.3 1111 1040.7 C 1121.1 1038.6 1131.1 1036.5 1141.2 1034.4 C 1139.9 1003.3 1141.3 976.8 1143.3 956.5 C 1145.7 931.3 1151.8 872.6 1176.3 814 C 1179.5 806.5 1183.6 797.4 1190.3 780.3 C 1201.6 752 1209.8 727.8 1213.5 716.4 C 1230.9 662 1239.6 598.9 1242.3 578.1 C 1222.1 580.5 1202 583.1 1181.9 585.7 Z" id="Path" fill="#6D6C6C" opacity="0.2" fill-rule="nonzero" stroke="none" stroke-width="1" transform="matrix(1, 0, 0, 1, 0, -7.105427357601002e-15)"/>
  <path d="M 1214.9 712.8 C 1175.7 763.9 1157.4 810.2 1148.2 841.3 C 1139.8 869.6 1136.1 894.6 1131.3 927 C 1124.5 973 1121.9 1011.8 1120.8 1039.4 C 1127.4 1037.8 1133.9 1036.1 1140.5 1034.5 C 1139.4 995.8 1142.1 962.7 1145.4 936.9 C 1149.4 906.3 1154 870.8 1170 828.1 C 1175.8 812.6 1178.6 808.2 1191.8 774.7 C 1202 748.5 1209.8 727 1214.9 712.8 Z" id="Path" fill="#6D6C6C" opacity="0.19" fill-rule="nonzero" stroke="none" stroke-width="1" transform="matrix(1, 0, 0, 1, 0, -7.105427357601002e-15)"/>
  <path d="M 1306.7 1020.6 C 1312.3 1034.5 1318 1048.4 1323.6 1062.4 C 1276.6 1092.3 1254.4 1109.7 1256.9 1114.8 C 1260 1121.1 1300.6 1108.6 1378.7 1077.5 C 1370.4 1050.5 1362.1 1023.6 1353.8 996.6 L 1306.7 1020.6 Z" id="Path" fill="#161616" fill-rule="nonzero" stroke="none" stroke-width="1" transform="matrix(1, 0, 0, 1, 0, -7.105427357601002e-15)"/>
  <path d="M 1268.1 555 C 1292.6 577.4 1291.8 608.8 1294.9 660.8 C 1294.9 660.8 1302.5 788.7 1328 891.5 C 1334.4 917.2 1346 957.1 1367.5 1004.9 C 1363.9 1009.5 1354.1 1020.7 1336.9 1026.6 C 1319.3 1032.6 1304.3 1029.4 1298.7 1027.9 C 1268.1 975.7 1246.4 931.2 1232.4 900.4 C 1167.5 758.2 1162.3 683.3 1162.3 644.2 C 1162.3 604 1163 555.8 1192.9 539.7 C 1215.4 527.6 1248.4 537 1268.1 555 Z" id="Path" fill="#D6D6D6" fill-rule="nonzero" stroke="none" stroke-width="1" transform="matrix(1, 0, 0, 1, 0, -7.105427357601002e-15)"/>
  <path d="M 1198.7 570.3 C 1209.8 613 1221.8 656.4 1234.6 700.4 C 1268 814.6 1304.3 922.5 1342.4 1023.7 C 1346.1 1021.8 1350.6 1019.2 1355.2 1015.7 C 1359.9 1012.1 1363.6 1008.5 1366.4 1005.3 C 1361.2 993.2 1354 975.7 1346.4 954.2 C 1334.9 921.3 1316.2 860.8 1306.5 780.2 C 1297.2 702.8 1292.5 664.1 1292.9 639.7 C 1293.2 619.6 1295 578.7 1269 556.7 C 1263.6 552.2 1258.3 549.5 1254.6 547.9 C 1235.9 555.4 1217.3 562.9 1198.7 570.3 Z" id="Path" fill="#6D6C6C" opacity="0.15" fill-rule="nonzero" stroke="none" stroke-width="1" transform="matrix(1, 0, 0, 1, 0, -7.105427357601002e-15)"/>
  <path d="M 1294.1 665.7 C 1289.5 712.2 1288 774.5 1299.2 846.5 C 1310.5 918.9 1331 978 1349.5 1021 C 1355.2 1016.3 1360.9 1011.6 1366.6 1006.8 C 1359.8 990.7 1350.9 968.3 1342 940.9 C 1324.9 888.2 1317.5 847.1 1311.1 810.2 C 1304.6 772.4 1297.8 723.5 1294.1 665.7 Z" id="Path" fill="#6D6C6C" opacity="0.22" fill-rule="nonzero" stroke="none" stroke-width="1" transform="matrix(1, 0, 0, 1, 0, -7.105427357601002e-15)"/>
  <path d="M 825.9 189.7 C 821.9 191.7 816.4 195.2 812.1 201.2 C 809.8 204.3 807 208.4 806.6 214.2 C 806.5 216.5 806.2 221.5 809.4 224.8 C 810.3 225.8 812.7 227.7 824.5 227.3 C 835 226.9 840.3 226.7 843 223.9 C 848.2 218.5 846.3 208.3 843 202.2 C 837.8 192.5 827.6 190.1 825.9 189.7 Z" id="Path" stroke="#161616" stroke-width="2" fill="#FFFFFF" fill-rule="nonzero" transform="matrix(1, 0, 0, 1, 0, -7.105427357601002e-15)"/>
  <path d="M 886.3 214.8 C 900.4 230.9 923 240.5 964.5 257.6 C 1016.8 279.2 1043 290 1074 293.8 C 1107.5 297.9 1125.4 293.6 1131.6 304.5 C 1139.7 318.6 1120.7 345 1101.1 367.1 C 1086.5 363.9 1071.4 359.9 1055.8 354.7 C 970.3 326.4 908.5 276.6 867.9 235.2 C 862.8 236.3 854.1 237.4 844.2 234.4 C 835.7 231.9 823.7 225.5 824.4 220.4 C 825.3 214.2 847 213.1 848.3 213 C 841.7 210.3 832.2 205.7 821.9 198.2 C 818.9 196 801.7 183.3 803.8 179.3 C 805.6 175.8 821.2 180.6 835.9 185.1 C 849.3 189.2 858.6 192.1 868.8 199.1 C 878.6 205.7 884.3 212.5 886.3 214.8 Z" id="Path" stroke="#161616" stroke-width="2" fill="#FFFFFF" fill-rule="nonzero" transform="matrix(1, 0, 0, 1, 0, -7.105427357601002e-15)"/>
  <path d="M 817.1 190.8 C 819.5 193.5 820 197.1 822.1 199.9 C 823.9 202.4 826.5 204.2 829.2 205.7 C 837.3 210.2 845.9 213.9 854.2 218 C 855.6 218.7 857.4 216.8 856 215.6 C 851.7 211.9 847.1 208.6 842.3 205.6 C 840.7 204.6 839.1 207.2 840.8 208.2 C 845.4 211.1 849.8 214.2 853.9 217.7 L 855.7 215.3 C 847.8 211.5 839.9 207.8 832.1 203.7 C 828.4 201.8 825.1 199.6 823.2 195.8 C 821.9 193.2 821.2 190.7 819.2 188.5 C 817.9 187.3 815.8 189.4 817.1 190.8 Z" id="Path" fill="#FFFFFF" fill-rule="nonzero" stroke="none" stroke-width="1" transform="matrix(1, 0, 0, 1, 0, -7.105427357601002e-15)"/>
  <path d="M 824.9 201.3 C 829.5 203.3 833.9 205.9 837.9 209 C 839.4 210.2 841.5 208.1 840 206.9 C 835.8 203.6 831.3 200.9 826.4 198.7 C 824.6 197.9 823.1 200.5 824.9 201.3 Z" id="Path" fill="#FFFFFF" fill-rule="nonzero" stroke="none" stroke-width="1" transform="matrix(1, 0, 0, 1, 0, -7.105427357601002e-15)"/>
  <path d="M 813.1 189 C 816.9 195.1 821.9 200.1 827.8 204.1 C 829.4 205.2 830.9 202.6 829.3 201.5 C 823.8 197.8 819.2 193.1 815.7 187.4 C 814.7 185.9 812.1 187.4 813.1 189 Z" id="Path" fill="#FFFFFF" fill-rule="nonzero" stroke="none" stroke-width="1" transform="matrix(1, 0, 0, 1, 0, -7.105427357601002e-15)"/>
  <path d="M 817.6 197.2 C 819.6 199.9 821.8 202.4 824.3 204.6 C 826.1 206.2 834 211.9 829.9 214.8 C 829.1 215.3 829.9 216.6 830.7 216.1 C 833.5 214.2 832.4 210.8 830.7 208.5 C 829.4 206.8 827.6 205.5 825.9 204 C 823.3 201.7 821 199.2 818.9 196.5 C 818.3 195.6 817 196.4 817.6 197.2 Z" id="Path" fill="#161616" fill-rule="nonzero" stroke="none" stroke-width="1" transform="matrix(1, 0, 0, 1, 0, -7.105427357601002e-15)"/>
  <path d="M 815.5 207.6 C 818.5 211.7 824.2 217.5 829.8 215.8 C 830.7 215.5 830.3 214.1 829.4 214.4 C 824.6 215.9 819.3 210.4 816.8 206.9 C 816.2 206.1 814.9 206.8 815.5 207.6 Z M 811.1 214.6 C 814.4 219.1 819.2 221.7 824.8 222 C 825.8 222.1 825.8 220.6 824.8 220.5 C 819.8 220.2 815.4 217.8 812.4 213.8 C 811.8 213 810.5 213.8 811.1 214.6 Z M 807.9 223.6 C 812.6 228.5 820.4 228.6 825.1 223.6 C 825.8 222.9 824.7 221.8 824 222.5 C 819.9 226.9 813.1 226.8 809 222.5 C 808.3 221.8 807.2 222.9 807.9 223.6 Z M 808.9 188.8 C 820 196.1 828 208.4 841.9 210.8 C 842.8 211 843.3 209.5 842.3 209.4 C 828.6 207.1 820.6 194.8 809.7 187.6 C 808.8 186.9 808.1 188.2 808.9 188.8 Z" id="Shape" fill="#161616" fill-rule="nonzero" stroke="none" stroke-width="1" transform="matrix(1, 0, 0, 1, 0, -7.105427357601002e-15)"/>
  <path d="M 807.7 221.5 C 804.1 216.6 807.1 206.1 815.8 196.2 C 825.6 201.9 835.3 207.7 845.1 213.4 C 843.3 213.4 827.5 213.6 826.4 218.5 C 826.2 219.3 826.4 220.5 827.9 222.2 C 832.9 224.6 841.3 227.8 852.1 228.1 C 857.7 228.2 862.6 227.5 866.4 226.6 C 886.8 247.2 922.7 278.3 975.5 300.9 C 1021.9 320.7 1063.5 326.4 1091 328 C 1090.1 339.8 1089.2 351.5 1088.3 363.3 C 1043 351.3 981.6 328.5 920.6 282.7 C 899.8 267.1 882 251 866.8 235.5 C 852.8 237.8 844.1 235.4 838.6 232.6 C 833.9 230.2 830.9 227.2 824.7 226.7 C 820.6 226.4 817.1 227.4 812.6 225.2 C 812.1 225 809.2 223.5 807.7 221.5 Z" id="Path" fill="#6D6C6C" opacity="0.2" fill-rule="nonzero" stroke="none" stroke-width="1" transform="matrix(1, 0, 0, 1, 0, -7.105427357601002e-15)"/>
  <path d="M 936.5 292.1 C 950.5 299.6 966.7 307.2 985.2 313.7 C 1025.5 328 1062 332.5 1089.9 333.5 C 1089.5 343.7 1089.2 354 1088.8 364.2 C 1059.8 357.4 1023.4 345.5 984.8 323.9 C 966.3 313.6 950.3 302.7 936.5 292.1 Z" id="Path" fill="#6D6C6C" opacity="0.14" fill-rule="nonzero" stroke="none" stroke-width="1" transform="matrix(1, 0, 0, 1, 0, -7.105427357601002e-15)"/>
  <path d="M 1094.6 320.6 C 1088.9 333.5 1088.6 344.2 1088.1 363.4 C 1087.7 377.9 1088.7 393.5 1096.5 434.5 C 1106 484.1 1110.5 492.1 1112 518.4 C 1113.2 539 1111.6 555.9 1110.1 567.1 C 1122.7 574 1143.8 583.4 1171.4 585.5 C 1220.2 589.2 1256.3 567.7 1268.7 559.5 C 1270.2 528.1 1271.7 496.6 1273.3 465.2 C 1267.8 438.4 1261.3 417.4 1256.6 403.6 C 1241.8 360.1 1228 339.5 1236.8 317.7 C 1241.7 305.6 1251.4 298.2 1258.1 294.1 C 1253.4 290.5 1204.1 254 1150.3 272.9 C 1144.7 274.8 1109.3 287.3 1094.6 320.6 Z" id="Path" stroke="#161616" stroke-width="2" fill="#FFFFFF" fill-rule="nonzero" transform="matrix(1, 0, 0, 1, 0, -7.105427357601002e-15)"/>
  <path d="M 1150.1 272.8 C 1165.1 296.8 1173.5 318 1178.3 332.8 C 1178.3 332.8 1201.8 404.2 1184.6 500 C 1180.9 520.4 1174.3 549.4 1161.3 582.6 C 1166.3 583.7 1172.3 584.6 1179.1 584.9 C 1179.1 584.9 1189.6 585.4 1201.4 583.9 C 1215.8 582 1240.5 574.3 1269.6 559.5 L 1271.1 459.1 C 1263.7 430.8 1256.2 408.1 1250.6 392.2 C 1237.1 354.3 1227.6 336.5 1235.4 317.7 C 1240.5 305.4 1250.9 297.8 1259 293.4 C 1248.4 286.4 1228.8 275.5 1202 271.3 C 1179.9 267.9 1161.7 270.3 1150.1 272.8 Z" id="Path" fill="#6D6C6C" opacity="0.19" fill-rule="nonzero" stroke="none" stroke-width="1" transform="matrix(1, 0, 0, 1, 0, -7.105427357601002e-15)"/>
  <path d="M 1163.8 270.5 C 1179.9 290.3 1198.7 319.2 1210.3 357.3 C 1243.2 466.1 1189.1 561.5 1176.6 582.4 C 1187.1 582.3 1199.4 581.4 1212.8 578.8 C 1236.7 574.2 1255.8 566 1269.5 558.7 C 1270 527.5 1270.5 496.3 1271 465.2 C 1262.5 436.3 1254.5 408.9 1243.6 371.7 C 1236.2 346.2 1230.4 325.3 1241.3 308.6 C 1246.6 300.5 1254 296 1259.6 293.4 C 1227.7 285.7 1195.7 278.1 1163.8 270.5 Z" id="Path" fill="#6D6C6C" opacity="0.11" fill-rule="nonzero" stroke="none" stroke-width="1" transform="matrix(1, 0, 0, 1, 0, -7.105427357601002e-15)"/>
  <path d="M 1156.4 474.8 C 1156.1 453.4 1155.9 432.1 1155.6 410.7 C 1206.9 408.1 1258.2 405.5 1309.6 402.9 C 1311.4 422.7 1313.2 442.5 1315.1 462.3 C 1262.2 466.5 1209.3 470.6 1156.4 474.8 Z" id="Path" stroke="#161616" stroke-width="2" fill="#FFFFFF" fill-rule="nonzero" transform="matrix(1, 0, 0, 1, 0, -7.105427357601002e-15)"/>
  <path d="M 1140.8 467.8 L 1140.8 444.4 C 1206.7 439.5 1272.6 434.5 1338.5 429.6 C 1339 439.2 1339.5 448.9 1340.1 458.5 C 1273.7 461.5 1207.2 464.7 1140.8 467.8 Z" id="Path" stroke="#161616" stroke-width="2" fill="#FFFFFF" fill-rule="nonzero" transform="matrix(1, 0, 0, 1, 0, -7.105427357601002e-15)"/>
  <path d="M 1146.3 432.6 C 1147.1 444.1 1147.9 455.5 1148.6 467 C 1209.6 462.1 1270.5 457.1 1331.5 452.2 C 1332 441.8 1332.5 431.4 1333.1 420.9 C 1270.8 424.8 1208.5 428.7 1146.3 432.6 Z" id="Path" stroke="#161616" stroke-width="2" fill="#FFFFFF" fill-rule="nonzero" transform="matrix(1, 0, 0, 1, 0, -7.105427357601002e-15)"/>
  <path d="M 1131.4 458.4 C 1133.2 504 1135 549.6 1136.9 595.2 C 1204.9 587.6 1272.9 580.1 1340.9 572.5 L 1347.2 438.1 C 1275.2 444.9 1203.3 451.6 1131.4 458.4 Z" id="Path" stroke="#161616" stroke-width="2" fill="#FFFFFF" fill-rule="nonzero" transform="matrix(1, 0, 0, 1, 0, -7.105427357601002e-15)"/>
  <path d="M 1143 476.2 C 1173.9 472.1 1204.8 469.2 1235.9 467.4 C 1237.3 467.3 1237.3 465.1 1235.9 465.1 C 1204.8 466.9 1173.8 469.8 1143 473.9 C 1141.6 474.1 1141.6 476.4 1143 476.2 Z M 1177.5 482.3 C 1201.2 479.3 1224.9 476.2 1248.7 473.2 C 1250.1 473 1250.1 470.8 1248.7 470.9 C 1225 473.9 1201.3 477 1177.5 480 C 1176.1 480.3 1176.1 482.5 1177.5 482.3 Z M 1291.4 546.3 C 1291 552.6 1291 559 1291.6 565.3 C 1291.7 566.7 1294 566.7 1293.9 565.3 C 1293.3 559 1293.2 552.6 1293.7 546.3 C 1293.8 544.9 1291.5 544.9 1291.4 546.3 Z" id="Shape" fill="#161616" fill-rule="nonzero" stroke="none" stroke-width="1" transform="matrix(1, 0, 0, 1, 0, -7.105427357601002e-15)"/>
  <path d="M 1292.4 546.5 C 1304.8 546.8 1317.1 546.1 1329.4 544.5 L 1328.3 543.4 C 1328.1 549.2 1328.3 554.9 1328.7 560.6 C 1328.8 562 1331.1 562 1331 560.6 C 1330.5 554.9 1330.4 549.1 1330.6 543.4 C 1330.6 542.8 1330.1 542.2 1329.5 542.3 C 1317.2 543.9 1304.9 544.5 1292.5 544.3 C 1290.9 544.2 1290.9 546.4 1292.4 546.5 Z" id="Path" fill="#161616" fill-rule="nonzero" stroke="none" stroke-width="1" transform="matrix(1, 0, 0, 1, 0, -7.105427357601002e-15)"/>
  <path d="M 1293.3 567.1 C 1305.6 567.3 1317.7 566 1329.7 563.3 C 1331.1 563 1330.5 560.8 1329.1 561.1 C 1317.3 563.7 1305.4 565 1293.3 564.8 C 1291.9 564.8 1291.9 567 1293.3 567.1 Z M 1298 553.5 C 1305.6 554 1313.1 553.6 1320.7 552.4 C 1322.1 552.2 1321.5 550 1320.1 550.2 C 1312.8 551.4 1305.4 551.7 1298 551.2 C 1296.6 551.1 1296.6 553.4 1298 553.5 Z M 1302.8 559.8 C 1310.7 559.6 1318.3 558.1 1325.8 555.4 C 1327.1 554.9 1326.6 552.7 1325.2 553.2 C 1318 555.9 1310.5 557.3 1302.8 557.6 C 1301.4 557.5 1301.3 559.8 1302.8 559.8 Z" id="Shape" fill="#161616" fill-rule="nonzero" stroke="none" stroke-width="1" transform="matrix(1, 0, 0, 1, 0, -7.105427357601002e-15)"/>
  <path d="M 1163.7 590 C 1165.5 547.8 1167.3 505.6 1169 463.3 C 1227.4 458.6 1285.9 454 1344.3 449.3 C 1343 489.3 1341.6 529.3 1340.3 569.3 C 1281.4 576.2 1222.6 583.1 1163.7 590 Z" id="Path" fill="#6D6C6C" opacity="0.2" fill-rule="nonzero" stroke="none" stroke-width="1" transform="matrix(1, 0, 0, 1, 0, -7.105427357601002e-15)"/>
  <path d="M 1322.3 422 C 1322.6 433.6 1322 447.4 1319 462.7 C 1311.6 500.3 1293.8 527.4 1281.7 542.7 C 1289.9 553.6 1298.1 564.5 1306.4 575.4 L 1231.1 584.1 C 1235.1 538.3 1239.1 492.5 1243.1 446.8 C 1241.8 440.8 1240.4 434.8 1239.1 428.8 C 1266.8 426.4 1294.6 424.2 1322.3 422 Z" id="Path" fill="#6D6C6C" opacity="0.2" fill-rule="nonzero" stroke="none" stroke-width="1" transform="matrix(1, 0, 0, 1, 0, -7.105427357601002e-15)"/>
  <path d="M 1252.7 291.4 C 1273.6 288.6 1298.5 336.6 1308.4 371.1 C 1319.8 410.8 1314.8 445.1 1310.7 463.2 C 1302.7 498.7 1286.1 523.7 1275.7 537.2 C 1277.3 542.5 1281 556.9 1274.9 572.7 C 1265.9 595.8 1241.5 606.9 1239.6 604.8 C 1239 604.1 1240.2 601.2 1249.7 590.3 C 1247.7 592.4 1233.3 606.7 1217.1 603.3 C 1214.3 602.7 1210.8 602 1208.8 599.2 C 1204.1 592.4 1211.9 577 1228.5 559.9 C 1210.4 564.4 1205.6 563.2 1204.7 561.2 C 1202.4 556.4 1220.9 542.8 1227.6 537.8 C 1237.5 530.5 1246.4 525.5 1252.5 522.4 C 1269.6 486.9 1268.7 459.2 1267.2 446.2 C 1265 427 1257.8 406.1 1256.4 402.1 C 1252.4 390.6 1250.5 388 1242.5 367.3 C 1229.6 334.1 1229.6 328.4 1230.1 324 C 1231.9 310.8 1240.8 293 1252.7 291.4 Z" id="Path" stroke="#161616" stroke-width="2" fill="#FFFFFF" fill-rule="nonzero" transform="matrix(1, 0, 0, 1, 0, -7.105427357601002e-15)"/>
  <path d="M 1209.2 596.4 C 1220.3 590.1 1230 582 1238.1 572.2 C 1239.3 570.7 1237.2 568.6 1236 570.1 C 1228.1 579.7 1218.6 587.7 1207.7 593.9 C 1206 594.7 1207.5 597.3 1209.2 596.4 Z M 1219 603.1 C 1230 597.4 1239.4 589.5 1247 579.7 C 1248.2 578.2 1245.6 576.7 1244.4 578.2 C 1237.2 587.6 1228 595.1 1217.5 600.5 C 1215.8 601.4 1217.3 604 1219 603.1 Z" id="Shape" fill="#161616" fill-rule="nonzero" stroke="none" stroke-width="1" transform="matrix(1, 0, 0, 1, 0, -7.105427357601002e-15)"/>
  <path d="M 1244.3 296.2 C 1224.4 313.5 1305.6 389.4 1291.7 475.6 C 1282.2 534.7 1242.8 573.3 1242.8 573.3 C 1231.8 584.3 1211.1 597.8 1213.6 602.5 C 1215.4 605.9 1227.9 602.8 1232.4 601.4 C 1240.9 598.8 1246.8 594.4 1250.1 591.5 C 1245.1 597.1 1239.4 604 1240.6 605.4 C 1242.3 607.2 1256.5 599.8 1265.4 589.4 C 1280.8 571.4 1278.6 546.4 1277.1 536.2 C 1280.7 531.5 1285.4 524.9 1290.2 516.5 C 1294.6 509 1307.3 485.6 1312.8 453.8 C 1322.5 397.5 1302.6 353.1 1294.6 335.7 C 1287.4 320.2 1275.2 294.5 1256.7 293.4 C 1254.3 293.1 1248.2 292.8 1244.3 296.2 Z" id="Path" fill="#6D6C6C" opacity="0.17" fill-rule="nonzero" stroke="none" stroke-width="1" transform="matrix(1, 0, 0, 1, 0, -7.105427357601002e-15)"/>
  <path d="M 1311.7 452.2 C 1306.3 467.9 1299.9 484.4 1292.3 501.7 C 1286.9 514 1281.4 525.5 1275.8 536.4 C 1273 545.4 1267.7 558.9 1257.2 572.8 C 1246.2 587.4 1234.1 596.3 1226 601.4 C 1228.3 601.5 1231.1 601.3 1234.2 600.5 C 1242 598.7 1247.2 594.4 1249.8 591.8 C 1246.8 595.6 1243.7 599.3 1240.7 603.1 C 1243.1 602.7 1246.9 602 1251.1 600.1 C 1273.1 590.2 1277.7 563.3 1278 561.5 C 1278.8 556.6 1279.3 548.2 1276.3 537.8 C 1283.5 529.3 1292.6 516.6 1299.9 499.5 C 1308 480.7 1310.7 463.8 1311.7 452.2 Z" id="Path" fill="#6D6C6C" opacity="0.22" fill-rule="nonzero" stroke="none" stroke-width="1" transform="matrix(1, 0, 0, 1, 0, -7.105427357601002e-15)"/>
  <path d="M 1071.6 225.6 C 1055.5 244 1066.6 269.7 1068.1 273.2 C 1073.7 286.2 1088.2 304.7 1106.6 303.2 C 1120 302 1128.5 290.7 1130.6 287.7 C 1145.4 266.4 1140.5 225.7 1115.5 215.2 C 1101.7 209.4 1082.7 212.8 1071.6 225.6 Z" id="Path" fill-rule="nonzero" stroke="none" stroke-width="1" style="fill: rgb(238, 112, 44);" transform="matrix(1, 0, 0, 1, 0, -7.105427357601002e-15)"/>
  <path d="M 1112.2 242 C 1112.9 249.9 1121.2 251.6 1126.8 264.6 C 1130.8 274 1130.8 283.2 1130.1 289.8 C 1136.6 290.4 1148.6 290.7 1162.2 285.5 C 1172.9 281.4 1180.4 275.5 1184.9 271.4 C 1182.8 266.7 1179.7 259.8 1176 251.6 C 1160 216.7 1157.4 213.7 1153.5 212.2 C 1137.9 206.3 1110.9 227.3 1112.2 242 Z" id="Path" stroke="#161616" stroke-width="2" fill="#FFFFFF" fill-rule="nonzero" transform="matrix(1, 0, 0, 1, 0, -7.105427357601002e-15)"/>
  <path d="M 1054.6 138.7 C 1051.2 143.5 1049.1 149.4 1048.8 174.7 C 1048.6 196.3 1049.8 216 1051.8 233.5 L 1065.3 225.7 C 1067.3 230.6 1070.7 237.3 1076.5 243.8 C 1088 256.7 1102 261.1 1108.2 262.7 C 1114.7 261.1 1130.9 256.1 1143.2 240.8 C 1151.3 230.6 1153.9 220.5 1154.5 218.2 C 1158.2 203.1 1154.6 190.6 1152.7 185.4 C 1155.1 184.3 1158.8 182.2 1161.6 178.4 C 1167.5 170.4 1169.1 156.1 1161.8 151.3 C 1156.4 147.7 1146.8 149.8 1139.6 157.2 C 1138 153.5 1135.5 148.4 1131.5 143.1 C 1130.5 141.8 1123 132 1113.8 126.9 C 1096.1 116.7 1066.8 121.5 1054.6 138.7 Z" id="Path" stroke="#161616" stroke-width="2" fill="#FFFFFF" fill-rule="nonzero" transform="matrix(1, 0, 0, 1, 0, -7.105427357601002e-15)"/>
  <path d="M 1047.3 170.1 C 1043.3 169.4 1035.9 167.3 1032.4 161.2 C 1026.4 150.9 1035.2 135.2 1037.4 131.3 C 1039.2 128 1044 120.1 1064.4 105.8 C 1079.9 94.9 1087.7 89.5 1096.1 86.9 C 1125.9 78 1153.2 93.4 1158.3 96.3 C 1169 102.4 1175.8 109 1181.2 114.2 C 1189.5 122.2 1198.8 131.4 1209.2 142 C 1235.9 176.6 1245.3 208.2 1249.1 227.1 C 1253.4 248.5 1257.8 270.3 1245 283.1 C 1232.2 295.9 1208.8 293.3 1194.5 287.2 C 1174.6 278.7 1166.1 260.7 1159.5 246.8 C 1148.3 223 1147.6 200.2 1148.7 185.4 C 1158.7 182.5 1163.8 173.1 1161.5 166 C 1159.7 160.4 1153 154.8 1146.1 156.8 C 1140.8 158.3 1137 163.8 1137.3 170.2 C 1132.5 170.1 1119.7 169 1107.5 159.8 C 1098.6 153.1 1094.1 145.1 1092 140.7 C 1086.5 141.4 1075.5 143.4 1064.4 151.4 C 1055.1 157.8 1049.9 165.5 1047.3 170.1 Z" id="Path" fill-rule="nonzero" stroke="none" stroke-width="1" style="fill: rgb(238, 112, 44);" transform="matrix(1, 0, 0, 1, 0, -7.105427357601002e-15)"/>
  <path d="M 1113.5 189.2 C 1125.5 203.7 1129.3 219 1129.3 219 C 1133.2 236.2 1127.6 250.8 1125.1 256.7 C 1131.4 251.9 1137.8 247.1 1144.1 242.3 C 1148.5 256.9 1152.8 271.4 1157.2 286 C 1160.5 285.7 1167.3 284.5 1174.1 279.7 C 1179.3 276 1182.4 271.7 1184.1 269 C 1176 261.5 1160.5 244.9 1153.4 218.8 C 1150 206.2 1149.5 195 1149.9 186.6 C 1159 182.9 1163.7 174 1161.8 166.6 C 1160.4 161.2 1154.9 154.7 1147.8 155.7 C 1141.9 156.6 1137 162.4 1137.1 169.5 C 1132.6 169.5 1122 169 1110.9 162.3 C 1099.4 155.4 1093.9 145.8 1091.8 141.7 C 1092.3 160.9 1098.2 172 1103.5 178.6 C 1107 183.1 1108.6 183.3 1113.5 189.2 Z" id="Path" fill="#6D6C6C" opacity="0.24" fill-rule="nonzero" stroke="none" stroke-width="1" transform="matrix(1, 0, 0, 1, 0, -7.105427357601002e-15)"/>
  <path d="M 1067 185 C 1065.9 189 1066 193.1 1067.5 197 C 1068 198.4 1069.9 198.5 1070.4 197 C 1071.6 193.4 1071.6 189.6 1070.5 186 C 1069.9 184.2 1067 184.9 1067.6 186.8 C 1068.6 190 1068.5 193.1 1067.5 196.3 L 1070.4 196.3 C 1069.1 192.9 1068.9 189.4 1069.9 185.9 C 1070.4 183.9 1067.6 183.1 1067 185 Z M 1063.4 178.8 C 1066 177.2 1069.2 177.5 1071.4 179.6 C 1072.8 180.9 1074.9 178.8 1073.5 177.5 C 1070.4 174.5 1065.6 173.9 1061.9 176.2 C 1060.3 177.2 1061.8 179.8 1063.4 178.8 Z M 1074.2 204.2 C 1076.1 204.2 1076.1 201.2 1074.2 201.2 C 1072.2 201.2 1072.2 204.2 1074.2 204.2 Z M 1080.8 195.5 L 1080.8 195.8 C 1080.8 196.6 1081.5 197.3 1082.3 197.3 C 1083.1 197.3 1083.8 196.6 1083.8 195.8 L 1083.8 195.5 C 1083.8 194.7 1083.1 194 1082.3 194 C 1081.5 194 1080.8 194.6 1080.8 195.5 Z M 1081.1 203 C 1083 203 1083 200 1081.1 200 C 1079.2 200 1079.2 203 1081.1 203 Z M 1039.9 189.6 C 1038.7 193.6 1038.8 197.7 1040.2 201.6 C 1040.7 203 1042.6 203 1043.1 201.6 C 1044.3 198 1044.4 194.2 1043.4 190.6 C 1042.9 188.7 1040 189.5 1040.5 191.4 C 1041.4 194.6 1041.3 197.7 1040.2 200.8 L 1043.1 200.8 C 1041.9 197.4 1041.7 193.9 1042.8 190.4 C 1043.3 188.5 1040.4 187.7 1039.9 189.6 Z M 1038.2 182.1 C 1040.3 181 1043.2 181.5 1044.6 183.5 C 1045.7 185 1048.3 183.5 1047.2 182 C 1044.7 178.7 1040.4 177.6 1036.7 179.5 C 1035 180.4 1036.5 183 1038.2 182.1 Z M 1071.9 236.5 C 1079.6 235.1 1086.3 231 1091.3 224.9 C 1092.2 223.8 1090.6 222.2 1089.7 223.3 C 1085 229.1 1078.7 232.9 1071.3 234.3 C 1069.9 234.6 1070.5 236.8 1071.9 236.5 Z" id="Shape" fill="#161616" fill-rule="nonzero" stroke="none" stroke-width="1" transform="matrix(1, 0, 0, 1, 0, -7.105427357601002e-15)"/>
  <path d="M 1087.5 223.5 C 1089.3 224.1 1090.8 225 1092.1 226.3 C 1093.1 227.3 1094.7 225.7 1093.7 224.7 C 1092.1 223.1 1090.2 222 1088.1 221.3 C 1086.7 220.9 1086.1 223.1 1087.5 223.5 Z" id="Path" fill="#161616" fill-rule="nonzero" stroke="none" stroke-width="1" transform="matrix(1, 0, 0, 1, 0, -7.105427357601002e-15)"/>
  <path d="M 1149.8 92.7 C 1162.5 110.3 1178.8 135.2 1194.3 167 C 1210.7 200.6 1222.7 225.9 1213.4 235.9 C 1201.1 249.2 1158.6 228.1 1151.8 224.6 C 1153.2 233.7 1156.7 248.2 1167 262.7 C 1172.2 270 1181.3 282.9 1198.1 288.9 C 1208.2 292.5 1217.2 292.3 1220.7 292 C 1225.4 291.7 1230.8 291.3 1236.7 288.1 C 1236.7 288.1 1244.4 284 1249.6 275.6 C 1257.5 262.8 1253.3 245.5 1247.7 223.8 C 1241 197.8 1232 180.5 1223.2 163.4 C 1221 159.2 1218.4 154.3 1214.2 148.6 C 1210 142.8 1206.9 139.7 1193.9 127.2 C 1174.6 108.5 1171.6 105.8 1165.8 101.9 C 1159.4 97.5 1153.7 94.6 1149.8 92.7 Z" id="Path" fill="#371B9B" opacity="0.45" fill-rule="nonzero" stroke="none" stroke-width="1" transform="matrix(1, 0, 0, 1, 0, -7.105427357601002e-15)"/>
  <path d="M 1125.7 262.8 C 1126.5 265.1 1128.3 271.6 1125.7 278.8 C 1121.8 289.5 1111 293.1 1109.3 293.6 C 1097 297.6 1081.5 291.3 1071.1 277.6 C 1072.5 281.2 1075.6 287.6 1082 293.2 C 1085.2 296 1093.9 303.5 1106.2 302.6 C 1108.3 302.4 1121.8 301.4 1128 289.7 C 1132.5 281.4 1131.5 271 1125.7 262.8 Z" id="Path" fill="#371B9B" opacity="0.43" fill-rule="nonzero" stroke="none" stroke-width="1" transform="matrix(1, 0, 0, 1, 0, -7.105427357601002e-15)"/>
</svg>